<svg xmlns="http://www.w3.org/2000/svg" viewBox="0 0 401.2 136.65"><path d="M5.58 0C2.5 0 0 2.5 0 5.58v124.16c0 3.08 2.5 5.58 5.58 5.58h22.68c3.08 0 5.58-2.5 5.58-5.58v-22.68c0-3.08 2.5-5.58 5.58-5.58H62.1c3.08 0 5.58-2.5 5.58-5.58V73.22c0-3.08-2.5-5.58-5.58-5.58H39.42c-3.08 0-5.58-2.5-5.58-5.58V39.38c0-3.08 2.5-5.58 5.58-5.58H62.1c3.08 0 5.58-2.5 5.58-5.58V5.58C67.68 2.5 65.18 0 62.1 0zm107.06 5.58v22.68c0 3.08-2.5 5.58-5.58 5.58H84.38c-3.08 0-5.58 2.5-5.58 5.58V62.1c0 3.08 2.5 5.58 5.58 5.58h22.68c3.08 0 5.58 2.5 5.58 5.58v22.68c0 3.08-2.5 5.58-5.58 5.58H84.38c-3.08 0-5.58 2.5-5.58 5.58v22.68c0 3.08 2.5 5.58 5.58 5.58h56.5c3.08 0 5.58-2.5 5.58-5.58V5.58c0-3.08-2.5-5.58-5.58-5.58H118.2c-3.08 0-5.58 2.5-5.58 5.58Z" style="fill:#31f7ed"/><path d="M196.47 20.86v14.06h34.21v20.86h-34.21v26.24h-27.65V8.19c0-4.52 3.67-8.19 8.19-8.19h58.47v20.86h-39.02Zm100.76 46.86h-31.17l-5.51 14.29h-28.12L268.29 0h27.18l35.85 82.02h-28.59l-5.51-14.29Zm-7.61-19.92-7.97-20.62-7.97 20.62h15.93Zm59.87-26.36h-24.02V0h75.69v21.44h-24.02v54.58c0 3.31-2.68 6-6 6h-21.65zM175.3 112.48v5.39h13.12v8H175.3v10.06h-10.6v-31.45h25.56v8zm31.81 15.54h-2.88v7.91h-10.6v-31.45h15.14c8.76 0 14.33 4.58 14.33 11.86 0 4.54-2.16 7.95-5.93 9.88l6.6 9.7h-11.32l-5.35-7.91Zm.99-15.36h-3.86v7.37h3.86c2.92 0 4.31-1.39 4.31-3.68s-1.39-3.68-4.31-3.68Zm45.15 15.27v8H227.1v-31.45h25.56v8h-15.14v3.68h13.3v7.64h-13.3v4.13h15.72Zm30.24 0v8h-26.15v-31.45h25.56v8h-15.14v3.68h13.3v7.64h-13.3v4.13h15.72Zm31.85-.22v8.22h-28.89v-6.51l14.38-16.71H286.9v-8.22h27.72V111l-14.38 16.71zm3.11-23.23h10.6v31.45h-10.6zm46.72 0v31.45h-8.72l-11.95-14.29v14.29h-10.33v-31.45h8.72l11.95 14.29v-14.29zm25.93 14.87h9.21v13.3c-3.82 2.61-9.08 4-13.7 4-10.15 0-17.57-6.78-17.57-16.44s7.41-16.44 17.79-16.44c6.2 0 11.19 2.16 14.38 6.07l-6.78 5.97c-1.98-2.29-4.27-3.46-7.05-3.46-4.67 0-7.64 3.01-7.64 7.86s2.97 7.86 7.5 7.86c1.3 0 2.56-.22 3.86-.76v-7.95Z" style="fill:#fff"/></svg>