<svg xmlns="http://www.w3.org/2000/svg" width="181.5" height="181.5"><svg xmlns="http://www.w3.org/2000/svg" id="SvgjsSvg1001" width="181.5" height="181.5" viewBox="0 0 181.5 181.5"><defs><style>@media (prefers-color-scheme:light){:root{filter:none}}@media (prefers-color-scheme:dark){:root{filter:none}}</style></defs><circle cx="90.8" cy="90.8" r="90.8" style="fill:#1e293b"/><path d="M39.1 39c-2.4 0-4.3 1.9-4.3 4.3v94.9c0 2.4 1.9 4.3 4.3 4.3h17.3c2.4 0 4.3-1.9 4.3-4.3v-17.3c0-2.4 1.9-4.3 4.3-4.3h17.3c2.4 0 4.3-1.9 4.3-4.3V95c0-2.4-1.9-4.3-4.3-4.3H65c-2.4 0-4.3-1.9-4.3-4.3V69.1c0-2.4 1.9-4.3 4.3-4.3h17.3c2.4 0 4.3-1.9 4.3-4.3V43.2c0-2.4-1.9-4.3-4.3-4.3H39.1Zm81.8 4.3v17.3c0 2.4-1.9 4.3-4.3 4.3H99.3c-2.4 0-4.3 1.9-4.3 4.3v17.3c0 2.4 1.9 4.3 4.3 4.3h17.3c2.4 0 4.3 1.9 4.3 4.3v17.3c0 2.4-1.9 4.3-4.3 4.3H99.3c-2.4 0-4.3 1.9-4.3 4.3v17.3c0 2.4 1.9 4.3 4.3 4.3h43.2c2.4 0 4.3-1.9 4.3-4.3v-95c0-2.4-1.9-4.3-4.3-4.3h-17.3c-2.4 0-4.3 1.9-4.3 4.3" style="fill:#31f7ed"/></svg></svg>