<svg xmlns="http://www.w3.org/2000/svg" xml:space="preserve" id="Layer_1" x="0" y="0" viewBox="0 0 267 267"><style>.st1{fill:#fff}</style><linearGradient id="SVGID_1_" x1="1404.959" x2="1671.041" y1="233.679" y2="233.679" gradientUnits="userSpaceOnUse"><stop offset="0" style="stop-color:#29a9e1"/><stop offset="1" style="stop-color:#0872b9"/></linearGradient><circle cx="1538" cy="233.7" r="133" style="fill:url(#SVGID_1_)"/><path d="m1610.1 309.6-25.6-34.8c6.1-6.9 5.8-17.5-.8-24.1L1522 189c-3.3-3.3-7.8-5.2-12.5-5.2-4.6 0-9 1.8-12.3 5-.2-.3-.4-.5-.6-.8l-15.9-15.9c-.3-.3-.7-.6-1.1-.8l20.3-20.3c1.3-1.3 1.3-3.5 0-4.8l-1-1c-1.3-1.3-3.5-1.3-4.8 0l-48.4 48.4c-1.3 1.3-1.3 3.5 0 4.8l1 1c1.3 1.3 3.5 1.3 4.8 0l20.5-20.5c.2.4.5.8.8 1.1l15.9 15.9c.2.2.5.5.8.6l-.1.1c-6.9 6.9-6.9 18.1 0 25l61.7 61.7c3.3 3.3 7.8 5.2 12.5 5.2 4.3 0 8.4-1.6 11.6-4.4zM1495.9 203l7.6-7.6c1.6-1.6 3.8-2.5 6.1-2.5s4.5.9 6.1 2.5l21.1 21.1-19.8 19.8-21.1-21.1c-3.4-3.4-3.4-8.8 0-12.2" class="st1"/><linearGradient id="SVGID_2_" x1="1.182" x2="267.264" y1="133.605" y2="133.605" gradientUnits="userSpaceOnUse"><stop offset="0" style="stop-color:#29a9e1"/><stop offset="1" style="stop-color:#0872b9"/></linearGradient><circle cx="134.2" cy="133.6" r="133" style="fill:url(#SVGID_2_)"/><title>Layer 1</title><g id="layer1"><path id="path7" d="M101.4 85.8c-20 0-36.2 16.2-36.2 36.2 0 40.7 41 51.4 69 91.6 26.4-40 69-52.2 69-91.6 0-20-16.2-36.2-36.2-36.2-14.5 0-27 8.6-32.8 20.9-5.8-12.3-18.3-20.9-32.8-20.9" class="st1"/></g></svg>