<svg xmlns="http://www.w3.org/2000/svg" id="a" viewBox="0 0 425.5 158.29"><defs><style>.b{fill:#fff}.c{opacity:.6}</style></defs><path d="M0 98.64h19.88c13.23 0 24.1 4.95 24.1 16.8 0 6.01-3.73 9.5-7.55 10.96 4.71 1.3 9.66 6.17 9.66 13.07 0 12.42-10.31 17.61-24.92 17.61H0V98.65Zm16.15 13.47v9.98h4.71c3.25 0 6.09-1.22 6.09-4.95s-2.84-5.03-6.09-5.03zm0 20.7v10.79h5.92c3.25 0 6.49-1.3 6.49-5.36s-3.25-5.44-6.49-5.44h-5.92Zm45.93-34.17h16.96v34.49c0 6.17 3 9.66 9.25 9.66s9.25-3.49 9.25-9.66V98.64h17.04V135c0 13.88-9.66 23.29-26.3 23.29S62.07 148.88 62.07 135V98.64Zm87.65 31.49v26.94h-16.15V97.82h.41l29.14 24.02 29.06-24.02h.49v59.25h-16.23v-26.94l-13.31 10.79-13.39-10.79Zm87.32 26.95V98.65h10.23v49.83h23.78v8.6zm51.86 0V98.65h10.23v58.43zm43.74-49.83v16.56h20.78v8.52h-20.78v24.75h-10.23V98.65h34.9v8.6zm64.6 0v49.83h-10.23v-49.83h-17.04v-8.6h44.31v8.6z" class="b"/><g class="c"><path d="M414.29 22.42c-6.18 0-11.21-5.03-11.21-11.21S408.11 0 414.29 0s11.21 5.03 11.21 11.21-5.03 11.21-11.21 11.21m0-21c-5.4 0-9.79 4.39-9.79 9.79s4.39 9.79 9.79 9.79 9.79-4.39 9.79-9.79-4.39-9.79-9.79-9.79" class="b"/></g><g class="c"><path d="M412.59 7.99h1.39l-2.18 6.38h-1.26l-2.16-6.38h1.42l1.39 4.85zm2.88.67c.51-.53 1.17-.79 1.96-.79 1.06 0 1.84.35 2.33 1.06.27.4.42.79.44 1.19h-1.33q-.12-.465-.33-.69c-.24-.28-.59-.42-1.06-.42s-.85.2-1.12.59-.41.94-.41 1.66.14 1.25.43 1.61.66.53 1.1.53.81-.15 1.05-.46c.13-.16.24-.41.33-.74h1.33c-.11.7-.41 1.26-.88 1.7s-1.07.65-1.81.65c-.91 0-1.62-.29-2.14-.88q-.78-.885-.78-2.43c0-1.11.3-1.97.89-2.58" class="b"/></g><path d="M59.68 32.67c0 7.19-2.79 12.28-9.98 15.07 8.18 2.5 12.78 8.18 12.78 17.17 0 15.87-13.77 19.96-28.45 19.96H0V15.01h34.93c15.77 0 24.75 5.49 24.75 17.67Zm-27.95-.7h-8.68v10.28l8.68.1c3.89 0 5.79-2.4 5.79-5.19s-1.9-5.19-5.79-5.19m1.1 24.55h-9.78V67.9h9.78c4.39 0 6.69-2 6.69-5.69s-2.3-5.69-6.69-5.69M105 35.97v19.76c-5.39-1.7-12.28-.7-15.27 2.5v26.65H68.67V36.96h18.46v5.59c3.09-4.09 8.08-7.69 17.87-6.59Zm55.69 36.33c.6 0 1.3-.1 1.9-.2v12.28c-2.6 1.1-7.09 1.8-10.58 1.8-5.19 0-9.48-1.6-11.98-5.09-4.29 3.49-9.38 5.39-15.97 5.39-8.98 0-16.67-4.89-16.67-14.47 0-12.18 11.18-15.57 21.06-15.57 2.69 0 6.69.3 9.48.9v-1.1c0-3.39-2.89-5.29-9.48-5.29-5.99 0-11.78 1.4-17.27 3.39V38.57c4.69-1.4 12.68-3.19 19.66-3.19 16.47 0 27.05 4.69 27.05 23.25v11.08c0 1.9 1.2 2.59 2.79 2.59Zm-32.94-2c0 2.4 2.1 3.79 4.69 3.79 2 0 3.79-.5 5.49-1.6V66.6c-1.1-.4-2.6-.6-4.19-.6-2.89 0-5.99 1.1-5.99 4.29Zm81.44-20.96L192.82 68.1h17.77v16.77h-44.91V72.49l16.47-18.76h-14.97V36.96h42.02v12.38Zm8.28-12.38h21.06v47.91h-21.06zm50.3 47.91h-21.06V12.01h21.06zm8.19-47.91h21.06v47.91h-21.06zM356.2 72.3c.6 0 1.3-.1 1.9-.2v12.28c-2.6 1.1-7.09 1.8-10.58 1.8-5.19 0-9.48-1.6-11.98-5.09-4.29 3.49-9.38 5.39-15.97 5.39-8.98 0-16.67-4.89-16.67-14.47 0-12.18 11.18-15.57 21.06-15.57 2.69 0 6.69.3 9.48.9v-1.1c0-3.39-2.89-5.29-9.48-5.29-5.99 0-11.78 1.4-17.27 3.39V38.57c4.69-1.4 12.68-3.19 19.66-3.19 16.47 0 27.05 4.69 27.05 23.25v11.08c0 1.9 1.2 2.59 2.79 2.59Zm-32.94-2c0 2.4 2.1 3.79 4.69 3.79 2 0 3.79-.5 5.49-1.6V66.6c-1.1-.4-2.6-.6-4.19-.6-2.89 0-5.99 1.1-5.99 4.29Zm72.47-34.93c13.17 0 18.56 9.28 18.56 18.56v30.94h-21.06V57.52c0-3.19-2-4.59-4.59-4.59-2.3 0-4.09 1.3-4.99 2.4v29.54h-21.06V36.96h18.46v4.79c4.19-4.19 8.88-6.39 14.67-6.39ZM238.12 19.91c.01 1.55-.53 2.94-1.33 4.22-1.99 3.2-4.7 5.63-7.98 7.47-.56.31-1.08.31-1.63 0-3.43-1.98-6.32-4.53-8.27-8.04-.83-1.49-1.26-3.09-.9-4.79.47-2.18 1.82-3.64 3.98-4.19s4.03.06 5.52 1.73c.5.56.47.57.96.02 1.53-1.72 3.44-2.33 5.64-1.72 2.21.61 3.5 2.15 3.93 4.4.06.29.04.6.06.9Zm58.48 0c.01 1.55-.53 2.94-1.33 4.22-1.99 3.2-4.7 5.63-7.98 7.47-.56.31-1.08.31-1.63 0-3.43-1.98-6.32-4.53-8.27-8.04-.83-1.49-1.26-3.09-.9-4.79.47-2.18 1.82-3.64 3.98-4.19s4.03.06 5.52 1.73c.5.56.47.57.96.02 1.53-1.72 3.44-2.33 5.64-1.72 2.21.61 3.5 2.15 3.93 4.4.06.29.04.6.06.9Z" class="b"/></svg>