<svg xmlns="http://www.w3.org/2000/svg" width="217.2" height="48.8" viewBox="0 0 217.2 48.8"><path d="M0 0h217.2v48.8H0z"/><path d="M19.4 17.8c0-.2.2-.4.4-.4h1.8c.2 0 .4.2.4.4V29h5.1c.2 0 .4.2.4.4V31c0 .2-.2.4-.4.4h-7.3c-.2 0-.4-.2-.4-.4zm14.1 0c0-.2.2-.4.4-.4H42c.2 0 .4.2.4.4v1.6c0 .2-.2.4-.4.4h-5.9v3.3H41c.2 0 .4.2.4.4v1.7c0 .2-.2.4-.4.4h-4.9v3.5H42c.2 0 .4.2.4.4v1.6c0 .2-.2.4-.4.4h-8.1c-.2 0-.4-.2-.4-.4V17.9Zm17.3-.3c0-.2.1-.3.4-.3h.3c.2 0 .3 0 .3.2l4.4 9.4 4.4-9.4c0-.1.2-.2.3-.2h.3c.2 0 .3.1.4.3L64 30.9c0 .3-.1.5-.4.5h-1.8c-.2 0-.3-.2-.4-.3l-1.2-7.6-3.5 7.9c0 .1-.2.2-.3.2H56c-.2 0-.3-.1-.3-.2l-3.5-7.9-1.2 7.6c0 .1-.2.3-.4.3h-1.8c-.3 0-.4-.2-.4-.5zm26.1-.3c4 0 7.2 3.2 7.2 7.2s-3.2 7.2-7.2 7.2-7.2-3.2-7.2-7.2 3.2-7.2 7.2-7.2m0 11.8c2.5 0 4.6-2.1 4.6-4.6s-2.1-4.6-4.6-4.6-4.6 2.1-4.6 4.6 2.1 4.6 4.6 4.6m13.9-11.5c0-.2.2-.4.4-.4h.5l8.3 8.8v-8.3c0-.2.2-.4.4-.4h1.8c.2 0 .4.2.4.4v13.5c0 .2-.2.4-.4.4h-.5l-8.4-9.2v8.6c0 .2-.2.4-.4.4h-1.8c-.2 0-.4-.2-.4-.4V17.4Zm19.4.3c0-.2.2-.4.4-.4h4.6c2.4 0 4.2 1.6 4.2 3.7s-1.3 2.7-2.2 3.2c1.1.3 2.6 1.4 2.6 3.3s-1.9 3.9-4.4 3.9h-4.8c-.2 0-.4-.2-.4-.4V17.9Zm4.7 5.5c1 0 1.7-.8 1.7-1.8s-.7-1.7-1.7-1.7h-2.1v3.5zm.3 5.7c1 0 1.8-.8 1.8-1.8s-1-1.7-2-1.7h-2.2v3.6h2.4Zm17.5-11.8c4 0 7.2 3.2 7.2 7.2s-3.2 7.2-7.2 7.2-7.2-3.2-7.2-7.2 3.2-7.2 7.2-7.2m0 11.8c2.5 0 4.6-2.1 4.6-4.6s-2.1-4.6-4.6-4.6-4.6 2.1-4.6 4.6 2.1 4.6 4.6 4.6m15.6-9.2h-3.1c-.2 0-.4-.2-.4-.4v-1.6c0-.2.2-.4.4-.4h8.7c.2 0 .4.2.4.4v1.6c0 .2-.2.4-.4.4h-3.1V31c0 .2-.2.4-.4.4h-1.9c-.2 0-.4-.2-.4-.4V19.8Zm14.3 0h-3.1c-.2 0-.4-.2-.4-.4v-1.6c0-.2.2-.4.4-.4h8.7c.2 0 .4.2.4.4v1.6c0 .2-.2.4-.4.4h-3.1V31c0 .2-.2.4-.4.4h-1.9c-.2 0-.4-.2-.4-.4V19.8Zm12.1-2c0-.2.2-.4.4-.4h1.8c.2 0 .4.2.4.4V29h5.1c.2 0 .4.2.4.4V31c0 .2-.2.4-.4.4h-7.3c-.2 0-.4-.2-.4-.4zm14.1 0c0-.2.2-.4.4-.4h8.1c.2 0 .4.2.4.4v1.6c0 .2-.2.4-.4.4h-5.9v3.3h4.9c.2 0 .4.2.4.4v1.7c0 .2-.2.4-.4.4h-4.9v3.5h5.9c.2 0 .4.2.4.4v1.6c0 .2-.2.4-.4.4h-8.1c-.2 0-.4-.2-.4-.4V17.9Z" style="fill:#ff0"/></svg>