<svg xmlns="http://www.w3.org/2000/svg" xml:space="preserve" id="Layer_1" x="0" y="0" viewBox="0 0 267 267"><style>.st1{fill:#fff}</style><linearGradient id="SVGID_1_" x1="1404.959" x2="1671.041" y1="233.679" y2="233.679" gradientUnits="userSpaceOnUse"><stop offset="0" style="stop-color:#29a9e1"/><stop offset="1" style="stop-color:#0872b9"/></linearGradient><circle cx="1538" cy="233.7" r="133" style="fill:url(#SVGID_1_)"/><path d="m1610.1 309.6-25.6-34.8c6.1-6.9 5.8-17.5-.8-24.1L1522 189c-3.3-3.3-7.8-5.2-12.5-5.2-4.6 0-9 1.8-12.3 5-.2-.3-.4-.5-.6-.8l-15.9-15.9c-.3-.3-.7-.6-1.1-.8l20.3-20.3c1.3-1.3 1.3-3.5 0-4.8l-1-1c-1.3-1.3-3.5-1.3-4.8 0l-48.4 48.4c-1.3 1.3-1.3 3.5 0 4.8l1 1c1.3 1.3 3.5 1.3 4.8 0l20.5-20.5c.2.4.5.8.8 1.1l15.9 15.9c.2.2.5.5.8.6l-.1.1c-6.9 6.9-6.9 18.1 0 25l61.7 61.7c3.3 3.3 7.8 5.2 12.5 5.2 4.3 0 8.4-1.6 11.6-4.4zM1495.9 203l7.6-7.6c1.6-1.6 3.8-2.5 6.1-2.5s4.5.9 6.1 2.5l21.1 21.1-19.8 19.8-21.1-21.1c-3.4-3.4-3.4-8.8 0-12.2" class="st1"/><linearGradient id="SVGID_2_" x1=".459" x2="266.541" y1="133.5" y2="133.5" gradientUnits="userSpaceOnUse"><stop offset="0" style="stop-color:#29a9e1"/><stop offset="1" style="stop-color:#0872b9"/></linearGradient><circle cx="133.5" cy="133.5" r="133" style="fill:url(#SVGID_2_)"/><path d="M183.6 74.2c0-2.4-2-4.4-4.4-4.4h-55.4c-1.8 0-3.5 1.1-4.1 2.9L92 147.5c-.5 1.3-.3 2.9.5 4 .8 1.2 2.2 1.9 3.6 1.9h21.5l-18.8 55.5c-.7 2 .2 4.2 2 5.3.7.4 1.4.6 2.2.6 1.3 0 2.5-.5 3.4-1.6l67.8-83c1.1-1.3 1.3-3.1.6-4.7s-2.3-2.5-4-2.5h-19.6l31.5-46.1q.9-1.2.9-2.7" class="st1"/></svg>