<svg xmlns="http://www.w3.org/2000/svg" id="a" viewBox="0 0 211.55 36.67"><defs><style>.b{fill:#fff}</style></defs><path d="M23.23 23.6H9.58l-2.6 6.3H0L13.1.5h6.72l13.15 29.4h-7.14zm-2.15-5.16L16.42 7.18l-4.66 11.26zm46.33 14.61a9.44 9.44 0 0 1-3.46 2.69c-1.36.62-2.85.92-4.47.92-2.18 0-4.16-.47-5.92-1.41s-3.78-2.6-6.05-4.98c-2.66-.34-5.03-1.19-7.12-2.56a14.34 14.34 0 0 1-4.87-5.31q-1.74-3.255-1.74-7.2c0-2.88.69-5.48 2.08-7.79s3.3-4.12 5.75-5.44S46.81 0 49.86 0s5.8.66 8.23 1.97c2.44 1.32 4.35 3.13 5.75 5.44s2.1 4.91 2.1 7.79c0 3.42-.96 6.41-2.88 8.99s-4.46 4.37-7.62 5.38c.7.73 1.38 1.25 2.04 1.57s1.36.48 2.12.48c1.82 0 3.42-.73 4.79-2.18zM41.85 20.08c.8 1.43 1.9 2.54 3.3 3.34s2.97 1.2 4.7 1.2 3.3-.4 4.7-1.2 2.5-1.91 3.3-3.34 1.2-3.05 1.2-4.87-.4-3.44-1.2-4.87-1.9-2.54-3.3-3.34-2.97-1.2-4.7-1.2-3.3.4-4.7 1.2-2.5 1.91-3.3 3.34-1.2 3.05-1.2 4.87.4 3.44 1.2 4.87m32.47 6.84c-2.34-2.32-3.51-5.64-3.51-9.95V.5h6.8v16.21c0 5.26 2.18 7.9 6.55 7.9 2.13 0 3.75-.64 4.87-1.91s1.68-3.27 1.68-5.98V.5h6.72v16.46c0 4.31-1.17 7.63-3.51 9.95s-5.61 3.49-9.81 3.49-7.47-1.16-9.81-3.49Zm48.57-3.32h-13.65l-2.6 6.3h-6.97L112.77.5h6.72l13.15 29.4h-7.14l-2.6-6.3Zm-2.14-5.16-4.66-11.26-4.66 11.26zM135.7.5h6.8v23.86h14.74v5.54h-21.55V.5Zm36.46 18.99v10.42h-6.8v-10.5L153.97.5h7.22l7.85 13.06L176.89.5h6.68l-11.42 18.98Z" class="b"/><path d="m203.7 29.9-7.1-10.21-6.97 10.21h-7.81l10.88-14.95L182.37.5h7.73l6.76 9.53L203.5.5h7.35L200.6 14.7l10.96 15.2h-7.85Z" class="b"/></svg>