<svg xmlns="http://www.w3.org/2000/svg" id="a" viewBox="0 0 401.32 164.75"><defs><style>.b{fill:#fff}.c{opacity:.6}</style></defs><g class="c"><path d="M301.84 17.25c-4.76 0-8.62-3.87-8.62-8.62s3.87-8.62 8.62-8.62 8.62 3.87 8.62 8.62-3.87 8.62-8.62 8.62m0-16.15c-4.15 0-7.53 3.38-7.53 7.53s3.38 7.53 7.53 7.53 7.53-3.38 7.53-7.53-3.38-7.53-7.53-7.53" class="b"/></g><g class="c"><path d="M300.53 6.15h1.07l-1.67 4.91h-.97l-1.66-4.91h1.1l1.07 3.73 1.08-3.73Zm2.21.51c.4-.4.9-.61 1.51-.61.82 0 1.41.27 1.79.81.21.3.32.61.34.92h-1.03c-.07-.24-.15-.41-.25-.53-.18-.21-.45-.32-.81-.32s-.65.15-.86.45-.32.73-.32 1.28.11.96.33 1.24c.22.27.51.41.85.41s.62-.12.8-.35c.1-.13.19-.32.25-.57h1.02c-.09.54-.31.97-.67 1.31s-.82.5-1.39.5c-.7 0-1.25-.23-1.65-.68-.4-.46-.6-1.08-.6-1.87 0-.86.23-1.52.68-1.98Z" class="b"/></g><path d="m339.43 91.54-7.48 4.28-.05.05-.05.05c-6.56 3.96-9.92 12.79-7.64 20.1v.11l2.76 8.18-4.28-7.48-.05-.05-.05-.05c-1.95-3.2-5.04-5.74-8.78-7.15s-7.75-1.57-11.33-.49h-.11l-8.13 2.76 7.48-4.28.05-.05.05-.05c6.56-3.96 9.92-12.79 7.64-20.1v-.11l-2.71-8.13 4.23 7.42.05.05.05.05c1.95 3.2 5.04 5.74 8.78 7.15s7.75 1.57 11.33.49h.11l8.13-2.76Zm61.88-27.69-72.07 24.28c-2.22.7-4.77.49-7.04-.38-2.28-.87-4.28-2.38-5.47-4.44l-37.71-66.06 24.28 72.07c1.41 4.5-.76 10.13-4.77 12.52l-66.11 37.66 72.07-24.28c2.22-.7 4.77-.49 7.04.38 2.28.87 4.28 2.38 5.47 4.44l30.45 44.71-17.07-50.72c-1.41-4.5.76-10.13 4.77-12.52z" class="b"/><path d="M40.42 38.92c-4.01-3.47-9.37-5.2-16.15-5.2H1.03V91h13.33V71.38h9.92c6.77 0 12.19-1.73 16.15-5.15s5.96-7.97 5.96-13.66-2-10.19-5.96-13.66Zm-9.59 19.83c-1.52 1.57-3.68 2.38-6.61 2.38h-9.86V43.95h9.92c2.87 0 5.09.81 6.61 2.44s2.28 3.68 2.28 6.23c-.05 2.49-.81 4.55-2.33 6.12Zm248.51-25.03h-14.25L246.61 91h13.38l3.25-11.11h17.99L284.48 91h13.38l-18.53-57.28Zm-13.22 35.93 5.96-20.48h.22l5.96 20.48zm-51.48 4.17h-.27l-12.79-40.1h-17.45V91h13.33V76.8l-1.3-25.79.27-.05 13.66 40.05h8.94l13.82-40.42.22.05-1.25 26.17v14.2h13.33V33.72h-17.56zm-38.58-9.75c-3.31-2.82-8.18-5.2-14.68-7.15-4.23-1.52-7.1-2.76-8.62-3.79s-2.28-2.33-2.28-4.01.76-3.2 2.28-4.39 3.63-1.79 6.29-1.79 4.88.7 6.39 2.17c1.57 1.41 2.33 3.31 2.33 5.58h12.9l.05-.22c.11-5.15-1.84-9.32-5.91-12.63-4.06-3.25-9.27-4.88-15.61-4.88s-11.65 1.46-15.82 4.44-6.23 6.83-6.23 11.65 1.73 8.72 5.26 11.33c3.47 2.6 8.83 5.04 16.09 7.32 3.47 1.25 5.85 2.38 7.21 3.52 1.35 1.08 2 2.66 2 4.66 0 1.79-.65 3.25-2 4.34s-3.41 1.63-6.18 1.63c-3.63 0-6.34-.7-8.13-2.11s-2.66-3.79-2.66-7.1h-12.95l-.05.22c-.11 6.12 2.17 10.84 6.94 14.09s10.35 4.88 16.85 4.88 11.65-1.41 15.61-4.28c3.9-2.82 5.91-6.77 5.91-11.81-.05-4.93-1.73-8.83-4.99-11.65Zm-71.58-30.35L89.31 80.76H63.19V33.72H49.86V91h49.47l3.25-11.11h18.04L123.87 91h13.38l-18.53-57.28h-14.25Zm1.03 35.93 5.96-20.48h.22l5.96 20.48zM0 101.67h21.95v8.02H9.54v4.39h10.68v7.53H9.54v4.88h13.11v8.02H0zm40.26 32.78v-12.41l-11.98-20.37h10.84L45.03 113l5.91-11.33h10.84L49.8 122.04v12.41zm28.88-32.78h21.95v8.02H78.68v4.39h10.68v7.53H78.68v4.88h13.11v8.02H69.14zm47.09 32.78v-32.78h9.48v24.76h11.22v8.02zm40.1 0h-9.54v-32.78h9.54zm12.03-32.78h20.81v8.02H177.9v4.88h9.54v7.8h-9.54v12.14h-9.54zm54.84 0v8.02h-8.4v24.76h-9.54v-24.76h-8.4v-8.02z" class="b"/></svg>