<svg xmlns="http://www.w3.org/2000/svg" xml:space="preserve" id="Layer_1" x="0" y="0" viewBox="0 0 569 97.4"><style>.st0{fill:#fff}</style><path d="M142.7.4h2.1v14.8c0 4.9 2.6 7.8 7.3 7.8s7.3-3 7.3-7.8V.4h2.1v14.8c0 5.9-3.2 9.6-9.4 9.6s-9.4-3.7-9.4-9.6zm31.9 0h2.1v22.1h11.6v1.9h-13.7zm27.8 1.9h-7.8V.4h17.8v1.9h-7.8v22.1h-2.1V2.3zm28.8 12.2h-5.3v9.9h-2.1V.4h9c4.1 0 7.3 2.6 7.3 7s-3.1 6.8-6.7 6.9l6.9 10.1h-2.5zm1.4-12.2h-6.7v10.3h6.7c3.2 0 5.3-2.2 5.3-5.2s-2.1-5.1-5.3-5.1m34.8 16.2h-12.8l-2.4 5.9h-2.3l9.8-24h2.6l9.8 24h-2.3zm-12.1-1.9h11.5L261 2.4zm27 2.9c1.5 1.8 4.1 3.5 7.5 3.5 4.9 0 6.3-2.7 6.3-4.8 0-3.4-3.2-4.3-6.6-5.2-3.8-1-7.8-2.1-7.8-6.6 0-3.9 3.5-6.4 7.9-6.4 3.6 0 6.3 1.3 8.1 3.4l-1.4 1.5c-1.7-2.1-4.2-3-6.9-3-3.2 0-5.6 1.8-5.6 4.4 0 2.8 3 3.7 6.3 4.6 3.9 1.1 8.1 2.3 8.1 7.2 0 3.1-2.1 6.8-8.5 6.8-4 0-6.9-1.6-8.8-3.8zM321.2 0c7 0 11.7 5.4 11.7 12.4s-4.6 12.4-11.7 12.4-11.7-5.4-11.7-12.4S314.1 0 321.2 0m0 1.9c-5.8 0-9.5 4.5-9.5 10.5s3.7 10.5 9.5 10.5 9.5-4.5 9.5-10.5c0-6.1-3.8-10.5-9.5-10.5M345.1.4h2.1v14.8c0 4.9 2.6 7.8 7.3 7.8s7.3-3 7.3-7.8V.4h2.1v14.8c0 5.9-3.2 9.6-9.4 9.6s-9.4-3.7-9.4-9.6zM379 3.7v20.7h-2V.4h2.1l15 20.4V.4h2.1v24h-2zM409.4.4h7.7c7.5 0 12.1 5.4 12.1 12 0 6.7-4.7 12-12.1 12h-7.7zm7.6 22.1c6.3 0 10-4.5 10-10.1s-3.6-10.2-10-10.2h-5.6v20.3zM0 69.8c0-16.4 11.9-27.6 26.9-27.6 8.6 0 15 3.8 19.6 9.4l-3.8 2.5c-3.4-4.6-9.2-7.8-15.8-7.8-12.4 0-22.1 9.5-22.1 23.4 0 13.8 9.7 23.4 22.1 23.4 6.6 0 12.4-3.1 15.8-7.8l3.8 2.4c-4.7 5.8-11 9.5-19.6 9.5-15 .2-26.9-11-26.9-27.4m105 13.5H76.6l-5.4 13.1h-5.1L88 43h5.7l21.8 53.4h-5.1zm-26.9-4.2h25.5L90.8 47.5zM129.4 43h5.3L154 91.3 173.4 43h5.3l-21.8 53.4h-5.7zm73.2 0h4.6v53.4h-4.6zm47.4 4.2h-17.4V43h39.5v4.2h-17.4v49.2H250zm75.4 36.1H297l-5.4 13.1h-5.1L308.4 43h5.7l21.8 53.4h-5.1zm-26.9-4.2H324l-12.8-31.6zm69.3-31.9h-17.4V43h39.5v4.2h-17.4v49.2h-4.6V47.2zm47.6-4.2h4.6v53.4h-4.6zm115.5 7.3v46.1h-4.6V43h4.6l33.4 45.4V43h4.6v53.4h-4.5zm-56.7-3.6c12.6 0 22.8 10.2 22.8 22.8s-10.2 22.8-22.8 22.8-22.8-10.2-22.8-22.8 10.2-22.8 22.8-22.8m0-5c-15.4 0-27.8 12.5-27.8 27.8s12.5 27.8 27.8 27.8c15.4 0 27.8-12.5 27.8-27.8s-12.5-27.8-27.8-27.8" class="st0"/><path d="M474.2 54.1c8.5 0 15.5 6.9 15.5 15.5s-7 15.4-15.5 15.4-15.5-6.9-15.5-15.5 7-15.4 15.5-15.4m0-3.4c-10.4 0-18.8 8.4-18.8 18.8s8.4 18.8 18.8 18.8S493 80 493 69.5s-8.4-18.8-18.8-18.8" class="st0"/><path d="M474.2 59.9c5.3 0 9.6 4.3 9.6 9.6s-4.3 9.6-9.6 9.6-9.6-4.3-9.6-9.6 4.3-9.6 9.6-9.6m0-2.1c-6.5 0-11.7 5.3-11.7 11.7s5.3 11.7 11.7 11.7 11.7-5.3 11.7-11.7-5.2-11.7-11.7-11.7" class="st0"/></svg>