<svg xmlns="http://www.w3.org/2000/svg" id="a" viewBox="0 0 316.32 136.06"><defs><style>.c{fill:#fff}</style></defs><path d="M18.66 16.1c-1.9-.97-4.28-1.84-7-1.84-6.01 0-10.23 4.6-10.23 10.33s4.2 10.35 10.23 10.35c2.78 0 5.27-.89 7.14-1.82v1.41c-1.63.89-4.04 1.71-7.14 1.71C4.98 36.24 0 31.07 0 24.58s4.98-11.65 11.66-11.65c3.05 0 5.39.89 6.98 1.76v1.41zm14.57-2.79c4.52 0 7.26 2.44 7.26 6.44 0 3.41-2.04 5.71-5.45 6.3l5.59 9.85H39.1l-5.49-9.73h-5.89v9.73h-1.37V13.31zm-5.51 1.19v10.47h5.45c3.73 0 5.89-1.98 5.89-5.23s-2.16-5.25-5.89-5.25h-5.45Zm18.87-1.19 7.53 12.07 7.53-12.07h1.57l-8.39 13.42v9.16h-1.37v-9.16l-8.43-13.42h1.57Zm32.66-.38c6.52 0 11.34 5.27 11.34 11.66s-4.82 11.66-11.34 11.66-11.34-5.17-11.34-11.66c-.02-6.4 4.84-11.66 11.34-11.66m0 22.01c5.87 0 9.91-4.54 9.91-10.35s-4.04-10.35-9.91-10.35-9.91 4.6-9.91 10.35c0 5.81 4.08 10.35 9.91 10.35m19.35.95V13.31h1.37V34.7h10.35v1.19zm18.6 0V13.31h1.37v22.58zm12.49-9.73v9.73h-1.37V13.31h5.95c4.52 0 7.26 2.44 7.26 6.44s-2.76 6.44-7.26 6.44h-4.58v-.02Zm0-11.66v10.47h4.52c3.73 0 5.89-1.98 5.89-5.23s-2.18-5.25-5.89-5.25h-4.52Zm48.35 21.39V13.31h1.37V34.7h10.35v1.19zm15.33-22.58 7.53 12.07 7.51-12.07h1.57l-8.39 13.42v9.16h-1.37v-9.16l-8.41-13.42h1.57Zm21 21.57v-1.43c1.31.63 3.57 1.51 6.17 1.51 3.13 0 5.59-1.53 5.59-4.18s-1.15-4.02-5.45-5.59c-4.76-1.71-6.3-3.73-6.3-6.72 0-3.57 3.19-5.55 6.84-5.55 2.2 0 4.14.67 5.23 1.19v1.41c-1.19-.52-3.29-1.29-5.27-1.29-3.07 0-5.37 1.63-5.37 4.18 0 2.32 1.03 3.91 5.43 5.51 4.76 1.71 6.34 3.61 6.34 6.78 0 3.51-3.11 5.55-7.02 5.55-2.6 0-4.86-.71-6.19-1.37m20.72 1.01V13.31h1.37v22.58zm9.06-1.01v-1.43c1.31.63 3.57 1.51 6.17 1.51 3.13 0 5.59-1.53 5.59-4.18s-1.15-4.02-5.45-5.59c-4.76-1.71-6.3-3.73-6.3-6.72 0-3.57 3.19-5.55 6.84-5.55 2.2 0 4.14.67 5.23 1.19v1.41c-1.19-.52-3.29-1.29-5.27-1.29-3.07 0-5.37 1.63-5.37 4.18 0 2.32 1.03 3.91 5.43 5.51 4.76 1.71 6.34 3.61 6.34 6.78 0 3.51-3.11 5.55-7.02 5.55-2.6 0-4.86-.71-6.19-1.37" class="c"/><path id="b" d="m162.06 36.23-1.94-1.98v1.86h-1.21v-1.86l-1.94 1.98-.85-.85 2.79-2.82v-.73l-1.96 1.78-.81-.89 2.77-2.5v-4.24l-2.99 3.01.2 3.73-1.21.06-.12-2.66-.52.52-.02 3.98h-1.19l.02-2.79-1.31 1.31-.85-.84 1.31-1.31-2.78.02v-1.19l3.99-.02.51-.53-2.67-.12.06-1.19 3.74.18 3-2.99h-4.24l-2.5 2.77-.88-.81 1.77-1.96h-.73l-2.82 2.79-.85-.85 1.98-1.94h-1.84v-1.21h1.84l-1.98-1.93.85-.85 2.82 2.78h.73l-1.77-1.95.88-.81 2.5 2.76h4.24l-3-2.98-3.74.18-.06-1.19 2.67-.12-.51-.53-3.99-.02v-1.19l2.78.02-1.31-1.31.85-.85 1.31 1.32-.02-2.79h1.19l.02 3.98.52.52.12-2.66 1.21.06-.2 3.73 2.99 2.99v-4.18l-2.77-2.5.81-.89 1.96 1.78v-.73l-2.79-2.82.85-.85 1.94 1.98v-1.9h1.21v1.9l1.94-1.98.84.85-2.78 2.82v.73l1.96-1.78.8.89-2.76 2.5v4.18l2.97-2.95-.21-3.73 1.19-.06.15 2.64.5-.5.04-4 1.19.02-.02 2.77 1.33-1.34.85.85-1.33 1.33 2.76-.02.02 1.19-3.99.04-.51.51 2.65.14-.06 1.19-3.74-.2-2.94 2.96h4.17l2.51-2.76.88.81-1.77 1.95h.72l2.83-2.78.85.85-1.98 1.93h1.9v1.21h-1.9l1.98 1.94-.85.85-2.83-2.79h-.72l1.77 1.96-.88.81-2.51-2.77h-4.17l2.94 2.97 3.74-.2.06 1.19-2.65.14.51.51 3.99.04-.02 1.19-2.76-.02 1.33 1.33-.85.84-1.33-1.33.02 2.77-1.19.02-.04-4-.5-.5-.15 2.64-1.19-.06.21-3.73-2.97-2.97v4.24l2.76 2.5-.8.89-1.96-1.78v.73l2.78 2.82z" class="c"/><path d="m146.08 80.37 5.97-.75c.45 3.48 1.45 5.97 3 7.48 1.55 1.5 3.58 2.26 6.09 2.26 3.03 0 5.65-1.09 7.85-3.26s3.31-4.66 3.31-7.46c0-2.44-.82-4.46-2.47-6.05s-3.87-2.39-6.65-2.39c-.32 0-.97.05-1.97.14l1.05-5.12c.59.09 1.15.14 1.69.14 3.51 0 6.2-.85 8.09-2.56s2.83-3.8 2.83-6.29c0-2.28-.77-4.2-2.32-5.76s-3.44-2.34-5.68-2.34-4.16.8-5.92 2.39c-1.75 1.59-2.88 3.85-3.37 6.76l-6.04-1.22c.99-4.09 2.9-7.26 5.73-9.5s6.17-3.36 10.04-3.36c4.07 0 7.36 1.23 9.88 3.7q3.78 3.69 3.78 9.09c0 2.62-.68 4.91-2.05 6.87s-3.42 3.58-6.16 4.87c1.94 1.15 3.4 2.54 4.36 4.17s1.44 3.49 1.44 5.59c0 4.45-1.67 8.31-5 11.58s-7.32 4.9-11.95 4.9-8.13-1.26-10.9-3.78-4.31-5.88-4.63-10.09m46.66-.96c0 2.8.87 5.16 2.61 7.07s3.71 2.86 5.9 2.86c1.54 0 3.16-.58 4.88-1.75 1.72-1.16 3.18-2.93 4.37-5.31 1.2-2.37 1.8-4.74 1.8-7.09 0-3.03-.83-5.45-2.49-7.27s-3.67-2.73-6.02-2.73c-2.71 0-5.23 1.33-7.56 3.98-2.33 2.66-3.49 6.07-3.49 10.22m2.14-14.85c1.72-1.42 3.43-2.49 5.14-3.2s3.4-1.07 5.07-1.07q5.67 0 9.36 3.87c2.46 2.58 3.7 6.05 3.7 10.41 0 5.63-1.83 10.46-5.49 14.48-3.16 3.46-7.01 5.19-11.53 5.19-4.11 0-7.55-1.51-10.29-4.53-2.75-3.02-4.12-7.32-4.12-12.9 0-5 .88-10.16 2.64-15.5 1.36-4.09 3.03-7.47 5.04-10.12 2-2.66 4.12-4.61 6.37-5.85s4.79-1.87 7.61-1.87c3.39 0 6.16 1.06 8.31 3.17s3.37 5.14 3.66 9.07l-5.7.54c-.32-2.69-1.08-4.63-2.29-5.83s-2.68-1.8-4.43-1.8c-1.83 0-3.67.71-5.53 2.14-1.85 1.42-3.45 3.53-4.78 6.32s-2.25 5.29-2.75 7.48m35.51 14.09c0 3.05.51 5.44 1.52 7.16 1.38 2.37 3.43 3.56 6.14 3.56 2.37 0 4.53-1.07 6.48-3.22 2.8-3.03 4.91-7.47 6.33-13.31 1.41-5.84 2.12-10.62 2.12-14.33s-.68-6.15-2.05-7.73-3.17-2.37-5.41-2.37c-1.63 0-3.15.42-4.56 1.25-1.41.84-2.76 2.27-4.05 4.31-1.83 2.87-3.42 7.17-4.78 12.89-1.15 4.88-1.73 8.82-1.73 11.8m-5.94-1.56c0-4.2.63-8.48 1.88-12.82 1.26-4.34 2.65-7.81 4.19-10.41s3.13-4.63 4.78-6.1 3.27-2.55 4.87-3.24c1.59-.69 3.36-1.03 5.31-1.03 3.8 0 6.97 1.41 9.51 4.24s3.81 6.91 3.81 12.24-.88 10.93-2.64 16.31c-2.08 6.38-4.97 11.16-8.68 14.34-2.85 2.42-6.09 3.63-9.73 3.63s-6.88-1.46-9.44-4.39c-2.57-2.93-3.85-7.18-3.85-12.77m46.65-24.87q0 2.37 1.68 4.05t4.05 1.68c2.37 0 2.9-.56 4.02-1.68q1.68-1.68 1.68-4.05c0-2.37-.56-2.93-1.68-4.05q-1.68-1.68-4.02-1.68c-2.34 0-2.93.56-4.05 1.68q-1.68 1.68-1.68 4.05m-3.7 0c0-2.6.92-4.82 2.76-6.65s4.05-2.75 6.63-2.75 4.85.92 6.68 2.75 2.75 4.05 2.75 6.65-.92 4.82-2.76 6.66q-2.76 2.76-6.66 2.76c-3.9 0-4.79-.92-6.63-2.75s-2.76-4.06-2.76-6.68" class="c"/><path d="M305.46 2.8c-10.62-6.63-26.67-1.12-42.4 12.68l.33.19c11.93-9.35 23.55-12.78 31.4-7.88 11.82 7.37 11.33 31.29.08 57.17l10.78-4.34 1.3 8.74c12.73-29.89 12.74-57.69-1.48-66.56" class="c"/><path d="m282.55 74.13 6.03 3.46q-.735 1.305-1.5 2.61c-18.38 31.18-44.74 49.32-58.87 40.51-7.35-4.58-9.92-15.57-8.11-29.44l-.68-.39c-3.97 19.76-1.13 35.99 9.12 42.38 17.05 10.63 48.09-9.95 69.33-45.98.65-1.09 1.27-2.19 1.88-3.29l5.9 3.38-3.15-21.27z" class="c"/></svg>