<svg xmlns="http://www.w3.org/2000/svg" id="a" viewBox="0 0 364.86 140.95"><defs><style>.b,.c,.d{fill:#fff}.e{opacity:.6}.c{opacity:.5}.d{opacity:.7}</style></defs><path d="M157.55 74.17c0-1.18-.42-2.22-1.27-3.13s-1.8-1.36-2.85-1.36c-.66 0-2.02.39-4.09 1.16-2.06.77-3.9 1.16-5.51 1.16-3.49 0-6.26-1.22-8.31-3.67s-3.08-5.76-3.08-9.95 1.01-7.67 3.02-10.2 4.7-3.79 8.07-3.79c1.36 0 3.05.29 5.06.88s3.35.88 4.01.88c1.18 0 2.2-.46 3.07-1.39s1.3-2.01 1.3-3.25c0-1.92-1.31-3.6-3.92-5.05-2.61-1.44-5.81-2.17-9.58-2.17-6.42 0-11.72 2.22-15.91 6.67s-6.29 10.17-6.29 17.17 2.02 12.93 6.07 17.29c4.05 4.37 9.38 6.55 16.01 6.55q6 0 10.11-2.31c2.73-1.54 4.1-3.37 4.1-5.5Zm33.93-1.02q0-1.695-1.11-2.79-1.11-1.08-2.88-1.08c-.54 0-1.96.54-4.26 1.63-2.3 1.08-4.39 1.63-6.27 1.63-2.17 0-3.91-.53-5.23-1.58s-2.1-2.52-2.32-4.4h17.86q2.91 0 3.93-.9c.68-.6 1.02-1.65 1.02-3.16q0-6.93-4.68-11.73t-11.61-4.8c-6.93 0-8.79 1.7-12 5.11s-4.81 7.66-4.81 12.76 1.65 9.3 4.95 12.66 7.42 5.05 12.35 5.05c4.05 0 7.56-.86 10.56-2.59 2.99-1.72 4.49-3.66 4.49-5.81Zm-19.85-17.46c1.22-1.07 2.67-1.61 4.37-1.61s3.19.57 4.43 1.7 1.92 2.55 2.04 4.24h-13.19c.35-1.82 1.13-3.26 2.35-4.33m30.32 25.38c1.67 0 2.91-.59 3.72-1.78.8-1.19 1.21-3.02 1.21-5.5V39.56c0-2.46-.41-4.29-1.22-5.5-.82-1.21-2.05-1.81-3.7-1.81s-2.95.6-3.78 1.8-1.24 3.03-1.24 5.51V73.8c0 2.46.41 4.28 1.24 5.48s2.08 1.8 3.78 1.8Zm21.14-1.78c.8-1.19 1.21-3.02 1.21-5.5V39.56c0-2.46-.41-4.29-1.22-5.5-.82-1.21-2.05-1.81-3.7-1.81s-2.95.6-3.78 1.8-1.24 3.03-1.24 5.51V73.8c0 2.46.41 4.28 1.24 5.48s2.08 1.8 3.78 1.8 2.91-.59 3.72-1.78Zm38.36-12.27V53.71c0-2.48-.4-4.3-1.21-5.48q-1.2-1.77-3.72-1.77c-2.52 0-2.98.59-3.79 1.78-.82 1.19-1.22 3.01-1.22 5.46v11.27c0 2.66-.4 4.55-1.21 5.65-.8 1.1-2.12 1.66-3.93 1.66s-3.13-.55-3.93-1.66c-.8-1.1-1.21-2.99-1.21-5.65V53.7c0-2.46-.41-4.28-1.22-5.46-.82-1.19-2.06-1.78-3.73-1.78s-2.95.59-3.78 1.78-1.24 3.01-1.24 5.46v13.31c0 4.75 1.3 8.38 3.89 10.88 2.59 2.51 6.33 3.76 11.22 3.76s8.63-1.25 11.21-3.76 3.87-6.13 3.87-10.88Zm12.08 14.05c1.67 0 2.91-.59 3.72-1.78.8-1.19 1.21-3.02 1.21-5.5V39.56c0-2.46-.41-4.29-1.22-5.5-.82-1.21-2.05-1.81-3.7-1.81s-2.95.6-3.78 1.8-1.24 3.03-1.24 5.51V73.8c0 2.46.41 4.28 1.24 5.48s2.08 1.8 3.78 1.8Zm17.43-37.27c1.59 0 2.94-.56 4.04-1.67s1.66-2.48 1.66-4.09-.56-2.95-1.67-4.09c-1.11-1.13-2.46-1.7-4.02-1.7s-2.95.57-4.09 1.7c-1.14 1.14-1.7 2.5-1.7 4.09s.56 2.97 1.67 4.09 2.49 1.67 4.12 1.67Zm3.71 35.49c.8-1.19 1.21-3.02 1.21-5.5V53.7c0-2.46-.4-4.28-1.21-5.46-.8-1.19-2.04-1.78-3.72-1.78s-2.98.59-3.79 1.78c-.82 1.19-1.22 3.01-1.22 5.46v20.09c0 2.46.41 4.28 1.24 5.48s2.08 1.8 3.78 1.8 2.91-.59 3.72-1.78Zm25.87-30.76c-1.1-.78-2.65-1.18-4.63-1.18h-.87v-4.4c0-2.46-.41-4.28-1.22-5.48-.82-1.2-2.06-1.8-3.73-1.8s-2.95.6-3.78 1.8-1.24 3.02-1.24 5.48v4.4c-2 .1-3.5.53-4.5 1.27s-1.5 1.8-1.5 3.16.5 2.37 1.5 3.14 2.38 1.16 4.13 1.16h.37v17.71c0 2.46.41 4.28 1.24 5.48s2.08 1.8 3.78 1.8 2.94-.59 3.75-1.78c.8-1.19 1.21-3.02 1.21-5.5V56.08h.8c2.11 0 3.69-.36 4.75-1.08s1.59-1.8 1.59-3.22-.55-2.47-1.66-3.25Zm29.52 30.42c2.99-1.72 4.49-3.66 4.49-5.81q0-1.695-1.11-2.79-1.11-1.08-2.88-1.08c-.54 0-1.96.54-4.26 1.63-2.3 1.08-4.39 1.63-6.27 1.63-2.17 0-3.91-.53-5.23-1.58s-2.1-2.52-2.32-4.4h17.86q2.91 0 3.93-.9c.68-.6 1.02-1.65 1.02-3.16q0-6.93-4.68-11.73T339 45.96c-6.93 0-8.79 1.7-12 5.11s-4.81 7.66-4.81 12.76 1.65 9.3 4.95 12.66 7.42 5.05 12.35 5.05c4.05 0 7.56-.86 10.56-2.59ZM334.7 55.68c1.22-1.07 2.67-1.61 4.37-1.61s3.19.57 4.43 1.7 1.92 2.55 2.04 4.24h-13.19c.35-1.82 1.13-3.26 2.35-4.33m-194.64 52.4c0-4.72-3.25-7.52-8.64-7.52h-7.96v24.6h3.28v-9.64h5.13l5.09 9.64h3.66l-5.57-10.18c2.63-.82 5.02-3.21 5.02-6.9Zm-8.47 4.75h-4.85v-9.5h4.58c3.42 0 5.47 1.78 5.47 4.75s-1.95 4.75-5.19 4.75Zm21.7 1.27h9.97v-2.77h-9.97v-8h11.82v-2.76h-15.1v24.6h15.61v-2.77h-12.33zm28.8-13.53h-7.07v24.6h7.21c7.82 0 13.02-4.92 13.02-12.3s-5.26-12.3-13.15-12.3Zm.1 21.83h-3.89v-19.07h3.76c5.91 0 9.84 3.83 9.84 9.53s-3.89 9.53-9.7 9.53Zm37.62-6.08c0 3.89-2.32 6.22-6.22 6.22s-6.18-2.32-6.18-6.22v-15.75h-3.28v15.99c0 5.64 3.55 9.02 9.46 9.02s9.5-3.38 9.5-9.02v-15.99h-3.28zm15.48-3.45c0-5.57 4.03-9.67 9.64-9.67 3.14 0 5.71 1.02 7.31 1.84v-3.11c-.82-.48-3.59-1.78-7.31-1.78-7.45 0-12.95 5.4-12.95 12.71s5.5 12.71 12.95 12.71c3.89 0 6.66-1.26 7.48-1.74v-3.11c-1.61.82-4.17 1.81-7.48 1.81-5.6 0-9.64-4.1-9.64-9.67Zm23.95-9.54h7.49v21.84h3.28v-21.84h7.51v-2.76h-18.28zm26.66-2.76h3.28v24.6h-3.28zm25.28-.41c-7.14 0-12.61 5.6-12.61 12.71s5.47 12.71 12.61 12.71 12.61-5.5 12.61-12.71-5.57-12.71-12.61-12.71m0 22.38c-5.33 0-9.29-4.1-9.29-9.67s3.96-9.67 9.29-9.67 9.26 4.1 9.26 9.67-3.93 9.67-9.26 9.67m38.1-21.97v17.01l-.79-.85-15.27-16.57h-.04v25.01h3.28v-17.02l.79.86 15.27 16.57h.04v-25.01z" class="b"/><g class="e"><path d="M355.3 28.91c-5.28 0-9.57-4.29-9.57-9.57s4.29-9.57 9.57-9.57 9.57 4.29 9.57 9.57-4.29 9.57-9.57 9.57m0-17.92c-4.61 0-8.35 3.75-8.35 8.35s3.75 8.35 8.35 8.35 8.35-3.75 8.35-8.35-3.75-8.35-8.35-8.35" class="b"/></g><g class="e"><path d="M353.85 16.6h1.18l-1.86 5.45h-1.08l-1.84-5.45h1.22l1.18 4.14 1.19-4.14Zm2.45.57c.44-.45 1-.67 1.67-.67.91 0 1.57.3 1.99.9.23.34.36.68.37 1.02h-1.14c-.07-.26-.17-.46-.28-.59-.2-.24-.5-.35-.9-.35s-.73.17-.96.5-.35.81-.35 1.42.12 1.07.37 1.37.56.46.94.46.69-.13.89-.39c.11-.14.21-.35.28-.63h1.13c-.1.59-.35 1.08-.75 1.45s-.91.56-1.54.56c-.78 0-1.38-.25-1.83-.75-.44-.51-.67-1.2-.67-2.08 0-.95.25-1.68.76-2.2Z" class="b"/></g><circle cx="6.5" cy="76.76" r="2.62" class="b"/><circle cx="16.07" cy="76.76" r="2.62" class="b"/><circle cx="25.64" cy="76.76" r="2.62" class="b"/><circle cx="35.21" cy="76.76" r="2.62" class="b"/><circle cx="44.78" cy="76.76" r="2.62" class="d"/><circle cx="54.35" cy="76.76" r="2.62" class="c"/><circle cx="16.07" cy="67.28" r="2.62" class="b"/><circle cx="25.64" cy="67.28" r="2.62" class="b"/><circle cx="35.21" cy="67.28" r="2.62" class="b"/><circle cx="44.78" cy="67.28" r="2.62" class="d"/><circle cx="54.35" cy="67.28" r="2.62" class="c"/><circle cx="16.07" cy="57.8" r="2.62" class="b"/><circle cx="25.64" cy="57.8" r="2.62" class="b"/><circle cx="35.21" cy="57.8" r="2.62" class="b"/><circle cx="44.78" cy="57.8" r="2.62" class="d"/><circle cx="54.35" cy="57.8" r="2.62" class="c"/><circle cx="25.64" cy="48.31" r="2.62" class="b"/><circle cx="35.21" cy="48.31" r="2.62" class="b"/><circle cx="44.78" cy="48.31" r="2.62" class="d"/><circle cx="54.35" cy="48.31" r="2.62" class="c"/><circle cx="6.5" cy="86.25" r="2.62" class="b"/><circle cx="16.07" cy="86.25" r="2.62" class="b"/><circle cx="25.64" cy="86.25" r="2.62" class="b"/><circle cx="35.21" cy="86.25" r="2.62" class="b"/><circle cx="44.78" cy="86.25" r="2.62" class="d"/><circle cx="54.35" cy="86.25" r="2.62" class="c"/><circle cx="6.5" cy="95.73" r="2.62" class="b"/><circle cx="16.07" cy="95.73" r="2.62" class="b"/><circle cx="25.64" cy="95.73" r="2.62" class="b"/><circle cx="35.21" cy="95.73" r="2.62" class="b"/><circle cx="44.78" cy="95.73" r="2.62" class="d"/><circle cx="54.35" cy="95.73" r="2.62" class="c"/><circle cx="6.5" cy="105.22" r="2.62" class="b"/><circle cx="16.07" cy="105.22" r="2.62" class="b"/><circle cx="25.64" cy="105.22" r="2.62" class="b"/><circle cx="35.21" cy="105.22" r="2.62" class="b"/><circle cx="44.78" cy="105.22" r="2.62" class="d"/><circle cx="54.35" cy="105.22" r="2.62" class="c"/><circle cx="16.07" cy="114.7" r="2.62" class="b"/><circle cx="25.64" cy="114.7" r="2.62" class="b"/><circle cx="35.21" cy="114.7" r="2.62" class="b"/><circle cx="44.78" cy="114.7" r="2.62" class="d"/><circle cx="54.35" cy="114.7" r="2.62" class="c"/><circle cx="25.64" cy="124.18" r="2.62" class="b"/><circle cx="35.21" cy="124.18" r="2.62" class="b"/><circle cx="44.78" cy="124.18" r="2.62" class="d"/><circle cx="54.35" cy="124.18" r="2.62" class="c"/><circle cx="35.21" cy="133.67" r="2.62" class="b"/><circle cx="44.78" cy="133.67" r="2.62" class="d"/><circle cx="54.35" cy="133.67" r="2.62" class="c"/><path d="M78.87 42.64c2.28-1.52 4.5-3.32 6.57-5.44 8.13-8.32 12.09-19.71 11.78-33.85L97.15 0 93.8.06c-.84.02-20.8.55-34.2 14.5-4.82 5.02-8.13 11.1-9.94 18.16-3.79-6.16-9.92-11.35-19.25-11.35-1.86 0-3.36 1.5-3.36 3.36s1.5 3.36 3.36 3.36c14.63 0 17.38 18.02 17.64 19.94l.07 3.12h3.28c.57 0 10.11-.1 20.38-4.63 16 7.35 26.81 23.57 26.81 41.77 0 25.33-20.61 45.94-45.94 45.94S6.72 113.62 6.72 88.29c0-20.24 12.97-37.87 32.28-43.87 1.77-.55 2.76-2.43 2.21-4.21S38.78 37.45 37 38c-10.5 3.27-19.92 9.94-26.54 18.78C3.62 65.93 0 76.83 0 88.29c0 29.04 23.62 52.66 52.66 52.66s52.66-23.62 52.66-52.66c0-19.18-10.49-36.44-26.45-45.65m-15.93.34h-.03c-.41.09-.81.18-1.19.25-3.95.78-6.7.79-6.7.79C54.24 7.89 90.26 7.21 90.26 7.21 90.67 25.8 81.64 35 72.62 39.55c-3.39 1.71-6.78 2.77-9.67 3.42Z" class="b"/></svg>