<svg xmlns="http://www.w3.org/2000/svg" xml:space="preserve" id="Layer_1" x="0" y="0" viewBox="0 0 267 267"><style>.st1{fill:#fff}</style><linearGradient id="SVGID_1_" x1="1404.959" x2="1671.041" y1="233.679" y2="233.679" gradientUnits="userSpaceOnUse"><stop offset="0" style="stop-color:#29a9e1"/><stop offset="1" style="stop-color:#0872b9"/></linearGradient><circle cx="1538" cy="233.7" r="133" style="fill:url(#SVGID_1_)"/><path d="m1610.1 309.6-25.6-34.8c6.1-6.9 5.8-17.5-.8-24.1L1522 189c-3.3-3.3-7.8-5.2-12.5-5.2-4.6 0-9 1.8-12.3 5-.2-.3-.4-.5-.6-.8l-15.9-15.9c-.3-.3-.7-.6-1.1-.8l20.3-20.3c1.3-1.3 1.3-3.5 0-4.8l-1-1c-1.3-1.3-3.5-1.3-4.8 0l-48.4 48.4c-1.3 1.3-1.3 3.5 0 4.8l1 1c1.3 1.3 3.5 1.3 4.8 0l20.5-20.5c.2.4.5.8.8 1.1l15.9 15.9c.2.2.5.5.8.6l-.1.1c-6.9 6.9-6.9 18.1 0 25l61.7 61.7c3.3 3.3 7.8 5.2 12.5 5.2 4.3 0 8.4-1.6 11.6-4.4zM1495.9 203l7.6-7.6c1.6-1.6 3.8-2.5 6.1-2.5s4.5.9 6.1 2.5l21.1 21.1-19.8 19.8-21.1-21.1c-3.4-3.4-3.4-8.8 0-12.2" class="st1"/><linearGradient id="SVGID_2_" x1=".459" x2="266.541" y1="134.192" y2="134.192" gradientUnits="userSpaceOnUse"><stop offset="0" style="stop-color:#29a9e1"/><stop offset="1" style="stop-color:#0872b9"/></linearGradient><circle cx="133.5" cy="134.2" r="133" style="fill:url(#SVGID_2_)"/><path d="M138.5 199.8c-1.4 0-3.7-.5-3.7-2.6v-30.9H76.6c-3.8 0-6.8-3.1-6.8-6.8v-50.2c0-3.8 3.1-6.8 6.8-6.8h58.2V71.2c0-2.1 2.5-2.6 3.9-2.6 1.5 0 2.9.5 3.8 1.4l53.2 53.2c3.7 3.7 5.5 7.3 5.5 10.8s-1.9 7.2-5.5 10.8l-53.6 53.5c-.8 1-2.1 1.5-3.6 1.5" class="st1"/></svg>