<svg xmlns="http://www.w3.org/2000/svg" id="a" viewBox="0 0 424.53 137.66"><defs><style>.b,.c,.d,.e,.f,.g{fill:#fff}.c{opacity:.8}.c,.d,.e,.f,.g{isolation:isolate}.h{opacity:.6}.d{opacity:.5}.e{opacity:.6}.f{opacity:.7}.g{opacity:.9}</style></defs><g class="h"><path d="M413.32 22.42c-6.18 0-11.21-5.03-11.21-11.21S407.14 0 413.32 0s11.21 5.03 11.21 11.21-5.03 11.21-11.21 11.21m0-21c-5.4 0-9.79 4.39-9.79 9.79s4.39 9.79 9.79 9.79 9.79-4.39 9.79-9.79-4.39-9.79-9.79-9.79" class="b"/></g><g class="h"><path d="M411.62 7.99h1.39l-2.18 6.38h-1.26l-2.16-6.38h1.42l1.39 4.85zm2.87.67c.51-.53 1.17-.79 1.96-.79 1.06 0 1.84.35 2.33 1.06.27.4.42.79.44 1.19h-1.33q-.12-.465-.33-.69c-.24-.28-.59-.42-1.06-.42s-.85.2-1.12.59-.41.94-.41 1.66.14 1.25.43 1.61.66.53 1.1.53.81-.15 1.05-.46c.13-.16.24-.41.33-.74h1.33c-.11.7-.41 1.26-.88 1.7s-1.07.65-1.81.65c-.91 0-1.62-.29-2.14-.88q-.78-.885-.78-2.43c0-1.11.3-1.97.89-2.58" class="b"/></g><path d="M54.3 120.74V81H9.05v39.67H0V34.64h9.05v38.64H54.3V34.64h9.05v86.1zm46.12-82.95c3.38 0 5.82 2.36 5.82 5.75s-2.52 5.75-5.82 5.75c-3.62 0-5.82-2.36-5.82-5.75-.08-3.38 2.2-5.75 5.82-5.75m4.41 23.14v59.81h-8.81V60.93zm41.87-18.66v31.48h33.92v7.63H146.7v39.35h-9.05V34.64h49.27v7.63zm132.77 48.8c0 19.52-12.04 31.09-32.27 31.09s-32.19-11.57-32.19-31.09V34.64h9.05V90.6c0 14.48 8.58 23.06 23.06 23.06s23.22-8.58 23.22-23.06V34.64h9.05v56.43zm18.42-56.19c1.65 0 2.91 1.18 2.91 2.83s-1.26 2.83-2.91 2.83c-1.81 0-2.91-1.18-2.91-2.83s1.18-2.83 2.91-2.83" class="b"/><path d="M320.63 34.88c1.65 0 2.91 1.18 2.91 2.83s-1.26 2.83-2.91 2.83c-1.81 0-2.91-1.18-2.91-2.83s1.1-2.83 2.91-2.83" class="g"/><path d="M343.3 34.88c1.65 0 2.91 1.18 2.91 2.83s-1.26 2.83-2.91 2.83c-1.81 0-2.91-1.18-2.91-2.83s1.1-2.83 2.91-2.83" class="c"/><path d="M366.04 34.88c1.65 0 2.91 1.18 2.91 2.83s-1.26 2.83-2.91 2.83c-1.81 0-2.91-1.18-2.91-2.83-.08-1.65 1.1-2.83 2.91-2.83" class="f"/><path d="M388.71 34.88c1.65 0 2.91 1.18 2.91 2.83s-1.26 2.83-2.91 2.83c-1.81 0-2.91-1.18-2.91-2.83s1.1-2.83 2.91-2.83" class="e"/><path d="M411.38 34.88c1.65 0 2.91 1.18 2.91 2.83s-1.26 2.83-2.91 2.83c-1.81 0-2.91-1.18-2.91-2.83s1.18-2.83 2.91-2.83" class="d"/><path d="M297.89 54.31c1.65 0 2.91 1.18 2.91 2.83s-1.26 2.83-2.91 2.83c-1.81 0-2.91-1.18-2.91-2.83s1.18-2.83 2.91-2.83" class="b"/><path d="M320.63 54.31c1.65 0 2.91 1.18 2.91 2.83s-1.26 2.83-2.91 2.83c-1.81 0-2.91-1.18-2.91-2.83s1.1-2.83 2.91-2.83" class="g"/><path d="M343.3 54.31c1.65 0 2.91 1.18 2.91 2.83s-1.26 2.83-2.91 2.83c-1.81 0-2.91-1.18-2.91-2.83s1.1-2.83 2.91-2.83" class="c"/><path d="M366.04 54.31c1.65 0 2.91 1.18 2.91 2.83s-1.26 2.83-2.91 2.83c-1.81 0-2.91-1.18-2.91-2.83-.08-1.65 1.1-2.83 2.91-2.83" class="f"/><path d="M388.71 54.31c1.65 0 2.91 1.18 2.91 2.83s-1.26 2.83-2.91 2.83c-1.81 0-2.91-1.18-2.91-2.83s1.1-2.83 2.91-2.83" class="e"/><path d="M411.38 54.31c1.65 0 2.91 1.18 2.91 2.83s-1.26 2.83-2.91 2.83c-1.81 0-2.91-1.18-2.91-2.83s1.18-2.83 2.91-2.83" class="d"/><path d="M297.89 73.68c1.65 0 2.91 1.18 2.91 2.83s-1.26 2.83-2.91 2.83c-1.81 0-2.91-1.18-2.91-2.83s1.18-2.83 2.91-2.83" class="b"/><path d="M320.63 73.68c1.65 0 2.91 1.18 2.91 2.83s-1.26 2.83-2.91 2.83c-1.81 0-2.91-1.18-2.91-2.83 0-1.57 1.1-2.83 2.91-2.83" class="g"/><path d="M343.3 73.68c1.65 0 2.91 1.18 2.91 2.83s-1.26 2.83-2.91 2.83c-1.81 0-2.91-1.18-2.91-2.83s1.1-2.83 2.91-2.83" class="c"/><path d="M366.04 73.68c1.65 0 2.91 1.18 2.91 2.83s-1.26 2.83-2.91 2.83c-1.81 0-2.91-1.18-2.91-2.83-.08-1.57 1.1-2.83 2.91-2.83" class="f"/><path d="M388.71 73.68c1.65 0 2.91 1.18 2.91 2.83s-1.26 2.83-2.91 2.83c-1.81 0-2.91-1.18-2.91-2.83 0-1.57 1.1-2.83 2.91-2.83" class="e"/><path d="M411.38 73.68c1.65 0 2.91 1.18 2.91 2.83s-1.26 2.83-2.91 2.83c-1.81 0-2.91-1.18-2.91-2.83s1.18-2.83 2.91-2.83" class="d"/><path d="M297.89 93.12c1.65 0 2.91 1.18 2.91 2.83s-1.26 2.83-2.91 2.83c-1.81 0-2.91-1.18-2.91-2.83s1.18-2.83 2.91-2.83" class="b"/><path d="M320.63 93.12c1.65 0 2.91 1.18 2.91 2.83s-1.26 2.83-2.91 2.83c-1.81 0-2.91-1.18-2.91-2.83s1.1-2.83 2.91-2.83" class="g"/><path d="M343.3 93.12c1.65 0 2.91 1.18 2.91 2.83s-1.26 2.83-2.91 2.83c-1.81 0-2.91-1.18-2.91-2.83s1.1-2.83 2.91-2.83" class="c"/><path d="M366.04 93.12c1.65 0 2.91 1.18 2.91 2.83s-1.26 2.83-2.91 2.83c-1.81 0-2.91-1.18-2.91-2.83-.08-1.65 1.1-2.83 2.91-2.83" class="f"/><path d="M388.71 93.12c1.65 0 2.91 1.18 2.91 2.83s-1.26 2.83-2.91 2.83c-1.81 0-2.91-1.18-2.91-2.83s1.1-2.83 2.91-2.83" class="e"/><path d="M411.38 93.12c1.65 0 2.91 1.18 2.91 2.83s-1.26 2.83-2.91 2.83c-1.81 0-2.91-1.18-2.91-2.83s1.18-2.83 2.91-2.83" class="d"/><path d="M297.89 112.55c1.65 0 2.91 1.18 2.91 2.83s-1.26 2.83-2.91 2.83c-1.81 0-2.91-1.18-2.91-2.83s1.18-2.83 2.91-2.83" class="b"/><path d="M320.63 112.55c1.65 0 2.91 1.18 2.91 2.83s-1.26 2.83-2.91 2.83c-1.81 0-2.91-1.18-2.91-2.83s1.1-2.83 2.91-2.83" class="g"/><path d="M343.3 112.55c1.65 0 2.91 1.18 2.91 2.83s-1.26 2.83-2.91 2.83c-1.81 0-2.91-1.18-2.91-2.83s1.1-2.83 2.91-2.83" class="c"/><path d="M366.04 112.55c1.65 0 2.91 1.18 2.91 2.83s-1.26 2.83-2.91 2.83c-1.81 0-2.91-1.18-2.91-2.83-.08-1.65 1.1-2.83 2.91-2.83" class="f"/><path d="M388.71 112.55c1.65 0 2.91 1.18 2.91 2.83s-1.26 2.83-2.91 2.83c-1.81 0-2.91-1.18-2.91-2.83s1.1-2.83 2.91-2.83" class="e"/><path d="M411.38 112.55c1.65 0 2.91 1.18 2.91 2.83s-1.26 2.83-2.91 2.83c-1.81 0-2.91-1.18-2.91-2.83s1.18-2.83 2.91-2.83" class="d"/><path d="M297.89 131.99c1.65 0 2.91 1.18 2.91 2.83s-1.26 2.83-2.91 2.83c-1.81 0-2.91-1.18-2.91-2.83s1.18-2.83 2.91-2.83" class="b"/><path d="M320.63 131.99c1.65 0 2.91 1.18 2.91 2.83s-1.26 2.83-2.91 2.83c-1.81 0-2.91-1.18-2.91-2.83s1.1-2.83 2.91-2.83" class="g"/><path d="M343.3 131.99c1.65 0 2.91 1.18 2.91 2.83s-1.26 2.83-2.91 2.83c-1.81 0-2.91-1.18-2.91-2.83s1.1-2.83 2.91-2.83" class="c"/><path d="M366.04 131.99c1.65 0 2.91 1.18 2.91 2.83s-1.26 2.83-2.91 2.83c-1.81 0-2.91-1.18-2.91-2.83-.08-1.65 1.1-2.83 2.91-2.83" class="f"/><path d="M388.71 131.99c1.65 0 2.91 1.18 2.91 2.83s-1.26 2.83-2.91 2.83c-1.81 0-2.91-1.18-2.91-2.83s1.1-2.83 2.91-2.83" class="e"/><path d="M411.38 131.99c1.65 0 2.91 1.18 2.91 2.83s-1.26 2.83-2.91 2.83c-1.81 0-2.91-1.18-2.91-2.83s1.18-2.83 2.91-2.83" class="d"/><path d="M161.34 131.99c1.65 0 2.91 1.18 2.91 2.83s-1.26 2.83-2.91 2.83c-1.81 0-2.91-1.18-2.91-2.83s1.1-2.83 2.91-2.83m22.59 0c1.65 0 2.91 1.18 2.91 2.83s-1.26 2.83-2.91 2.83c-1.81 0-2.91-1.18-2.91-2.83-.08-1.65 1.1-2.83 2.91-2.83m22.51 0c1.65 0 2.91 1.18 2.91 2.83s-1.26 2.83-2.91 2.83c-1.81 0-2.91-1.18-2.91-2.83s1.1-2.83 2.91-2.83m22.58 0c1.65 0 2.91 1.18 2.91 2.83s-1.26 2.83-2.91 2.83c-1.81 0-2.91-1.18-2.91-2.83s1.1-2.83 2.91-2.83m22.51 0c1.65 0 2.91 1.18 2.91 2.83s-1.26 2.83-2.91 2.83c-1.81 0-2.91-1.18-2.91-2.83s1.1-2.83 2.91-2.83m22.59 0c1.65 0 2.91 1.18 2.91 2.83s-1.26 2.83-2.91 2.83c-1.81 0-2.91-1.18-2.91-2.83s1.1-2.83 2.91-2.83m-248.07 0c1.65 0 2.91 1.18 2.91 2.83s-1.26 2.83-2.91 2.83c-1.81 0-2.91-1.18-2.91-2.83s1.1-2.83 2.91-2.83m22.51 0c1.65 0 2.91 1.18 2.91 2.83s-1.26 2.83-2.91 2.83c-1.81 0-2.91-1.18-2.91-2.83s1.18-2.83 2.91-2.83m22.59 0c1.65 0 2.91 1.18 2.91 2.83s-1.26 2.83-2.91 2.83c-1.81 0-2.91-1.18-2.91-2.83s1.1-2.83 2.91-2.83m22.58 0c1.65 0 2.91 1.18 2.91 2.83s-1.26 2.83-2.91 2.83c-1.81 0-2.91-1.18-2.91-2.83-.08-1.65 1.1-2.83 2.91-2.83m22.51 0c1.65 0 2.91 1.18 2.91 2.83s-1.26 2.83-2.91 2.83c-1.81 0-2.91-1.18-2.91-2.83s1.1-2.83 2.91-2.83m22.59 0c1.65 0 2.91 1.18 2.91 2.83s-1.26 2.83-2.91 2.83c-1.81 0-2.91-1.18-2.91-2.83-.08-1.65 1.1-2.83 2.91-2.83m-135.37 0c1.65 0 2.91 1.18 2.91 2.83s-1.26 2.83-2.91 2.83c-1.81 0-2.91-1.18-2.91-2.83s1.18-2.83 2.91-2.83" class="b"/></svg>