<svg xmlns="http://www.w3.org/2000/svg" xml:space="preserve" id="Layer_1" x="0" y="0" viewBox="0 0 267 267"><style>.st1{fill:#fff}</style><linearGradient id="SVGID_1_" x1=".959" x2="267.041" y1="133.679" y2="133.679" gradientUnits="userSpaceOnUse"><stop offset="0" style="stop-color:#29a9e1"/><stop offset="1" style="stop-color:#0872b9"/></linearGradient><circle cx="134" cy="133.7" r="133" style="fill:url(#SVGID_1_)"/><path d="M134 44.3c-49.3 0-89.4 40.1-89.4 89.4s40.1 89.4 89.4 89.4 89.4-40.1 89.4-89.4-40.1-89.4-89.4-89.4m0 163.9c-41.2 0-74.5-33.4-74.5-74.5S92.8 59.2 134 59.2s74.5 33.4 74.5 74.5-33.3 74.5-74.5 74.5" class="st1"/><path d="M188.7 123.7H144V79c0-5.5-4.4-9.9-9.9-9.9s-9.9 4.4-9.9 9.9v54.7c0 5.5 4.4 9.9 9.9 9.9h54.7c5.5 0 9.9-4.4 9.9-9.9s-4.6-10-10-10" class="st1"/></svg>