<svg xmlns="http://www.w3.org/2000/svg" id="a" viewBox="0 0 398.04 110.74"><defs><style>.b{fill:#fff}.c{opacity:.6}</style></defs><g class="c"><path d="M346.35 45.14c-4.28 0-7.77-3.48-7.77-7.77s3.49-7.77 7.77-7.77 7.77 3.48 7.77 7.77-3.48 7.77-7.77 7.77m0-14.55c-3.74 0-6.78 3.04-6.78 6.78s3.04 6.78 6.78 6.78 6.78-3.04 6.78-6.78-3.04-6.78-6.78-6.78" class="b"/></g><g class="c"><path d="M345.18 35.14h.96l-1.51 4.42h-.87l-1.5-4.42h.99l.96 3.36zm1.99.46c.36-.36.81-.55 1.36-.55.74 0 1.27.24 1.62.73.19.27.29.55.3.83h-.92c-.06-.21-.13-.37-.23-.48-.16-.19-.41-.29-.73-.29s-.59.14-.78.41-.29.65-.29 1.15.1.87.3 1.11c.2.25.46.37.76.37s.56-.11.73-.32c.09-.11.17-.29.23-.51h.92c-.08.48-.28.87-.61 1.18s-.74.45-1.25.45c-.63 0-1.12-.2-1.48-.61s-.54-.97-.54-1.69c0-.77.2-1.37.61-1.79Z" class="b"/></g><path d="M3.15 51.97C1.72 51.97 0 50.54 0 48.94c0-.46.17-.88.46-1.35 3.91-5.51 10.76-8.62 17.36-8.62 5.55 0 10.93 2.23 14.17 7.15 7.44-8.07 14.38-11.98 19.97-12.99.59-.13 1.18-.17 1.77-.17 5.84 0 12.19 4.92 12.19 12.7 0 1.22-.17 2.52-.5 3.91C64.07 54.95 52.6 65.33 45.7 67.9c4.41.34 9.16 3.24 10.85 6.35 2.35-.42 4.16-.55 5.55-.55 2.06 0 3.32.29 4.37.5.29.04.46.38.46.71 0 .59-.38 1.3-.88 1.3h-.04c-.63-.08-1.3-.08-1.89-.08-2.98 0-5.59.63-6.56 1.09.17.97.25 1.98.25 2.98 0 12.02-10.72 28.08-20.05 30.31-.63.17-1.26.21-1.93.21-5.34 0-10.47-5.13-10.47-10.55 0-1.35.34-2.73 1.05-4.04C30.4 88.77 38.73 80.7 49.4 76.16c-1.72-4.75-7.61-6.26-12.02-6.26-1.18 0-2.27.13-3.11.29-3.15 11.64-10.05 24.93-15.34 30.06-.92.92-2.06 1.3-3.24 1.3-3.53 0-7.4-3.45-7.4-7.19v-.25c.55-10.89 11.1-31.65 19.38-42.84-1.26-5.67-6.18-8.79-11.18-8.79-.34 0-.63 0-.97.04-4.08.34-8.7 3.32-10.64 8.2-.34.84-1.01 1.22-1.72 1.22Zm25.94 5.25v-.59c-8.91 9.88-16.4 30.14-16.4 35.86 0 .97.25 1.51.71 1.51.84 0 2.56-1.93 5.34-6.52 5.34-8.91 10.34-20.68 10.34-30.27Zm20.85 23.04v-.29C42.71 83 35.77 89.81 32.16 95.48c-1.51 2.44-2.31 4.46-2.31 5.8 0 1.22.63 1.93 1.89 1.93.92 0 2.23-.38 3.91-1.26 6.14-3.2 14.29-14.08 14.29-21.69m8.66-38.38c-.08-2.61-2.02-3.83-4.88-3.83-5.47 0-14.25 4.5-19.72 12.19.84 2.1 1.43 5.67 1.43 9.63 0 2.06-.17 4.25-.55 6.35 8.49-2.4 23.71-15.39 23.71-24.13v-.21Z" class="b"/><path d="M71.46 63.53c2.23 0 5.3 1.51 5.3 3.07 0 .13-.04.29-.08.42-1.81 4.37-5.51 16.65-6.22 20.43 3.03-7.19 9.75-23.79 13.66-25.94.5-.25 1.09-.38 1.68-.38 2.73 0 6.22 2.4 6.22 5.72 0 .29-.04.59-.08.88-.38 1.93-7.65 14.5-4.41 16.56.46.29.8.38.8.8 0 .59-.5 1.3-1.3 1.3-.08 0-.17 0-.29-.04-3.87-.8-6.26-4.29-6.26-7.23v-.17c.13-3.15 3.91-9.5 5.04-12.02.25-.59.38-1.05.38-1.35 0-.38-.17-.59-.42-.59-.21 0-.5.13-.8.34-2.94 2.14-9.92 16.31-15.05 31.65-.13.97-1.22 1.39-2.52 1.39-2.27 0-5.21-1.22-5.21-2.86.08-5.89 4.54-22.58 7.48-30.9.25-.8 1.09-1.09 2.1-1.09Zm30.26 19.43h-.17c-.42 1.85-.63 3.57-.63 5.09 0 2.27.55 3.99 1.89 4.54.34.13.71.21 1.09.21 5.59 0 14.5-13.91 16.35-17.49.17-.25.42-.38.71-.38.63 0 1.3.46 1.3 1.01 0 .13 0 .25-.08.38-2.69 5.09-10.09 17.53-15.81 19.67-.67.25-1.56.38-2.48.38-4.2 0-10.21-2.52-10.93-7.15-.13-.76-.17-1.6-.17-2.48 0-7.02 3.49-18.03 8.53-23.33 1.18-1.22 2.82-1.77 4.54-1.77 4.2 0 8.87 3.07 8.87 6.98 0 .34 0 .67-.08 1.01-1.05 5.04-5.55 13.33-12.95 13.33Zm.34-2.1c4.83-.17 8.83-9.25 8.83-12.7 0-.84-.25-1.34-.71-1.34-.38 0-.88.25-1.56.88-2.31 2.19-5.04 7.78-6.56 13.16" class="b"/><path d="M132.49 90.31c0-3.57.92-8.32 1.85-10.97-1.26 2.52-3.78 7.61-6.31 10.34-.55.59-1.35.84-2.31.84-2.94 0-7.15-2.48-7.44-5.04-.08-.55-.08-1.09-.08-1.68 0-6.89 4.5-16.02 9.08-18.58 1.26-.71 2.65-1.01 4.04-1.01 3.24 0 6.39 1.6 7.48 3.57.55-.97 1.89-3.11 2.23-3.41.25-.25.63-.38 1.09-.38 1.89 0 5.42 2.4 5.42 3.83 0 .13-.04.25-.08.38-5.34 9.12-7.36 17.82-7.36 22.49 0 1.98.34 3.24 1.01 3.49.08.04.21.04.34.04 2.98 0 10.93-12.74 13.45-19.04.21-.55.63-.8 1.01-.8.59 0 1.09.46 1.09 1.13 0 .17-.04.42-.13.63-4.79 11.01-9.12 17.95-13.2 20.81-.8.59-1.93.84-3.11.84-2.86 0-6.22-1.47-7.48-3.87-.42-.8-.59-2.1-.59-3.62Zm-6.39-4.16c2.19 0 10.55-14.75 11.56-16.77-.8-1.26-1.68-1.81-2.56-1.81-4.46 0-9.79 12.65-9.79 17.07 0 .92.25 1.47.76 1.51h.04Z" class="b"/><path d="M166.46 78.54c5.38-3.28 10.72-5.72 12.27-6.22.13-.04.25-.04.34-.04.63 0 1.01.55 1.01 1.09 0 .34-.13.63-.5.8-1.47.67-6.35 2.86-11.48 6.35 2.4 2.52 4.04 5.13 4.04 8.24 0 .42 0 .88-.08 1.34-.92 6.47-6.64 13.83-11.35 15.26-.8.25-1.56.34-2.35.34-4.41 0-8.58-3.36-8.58-7.1 0-.29.04-.63.08-.92.97-5.51 7.9-12.74 12.53-16.27-3.41-3.07-7.23-5.8-8.07-9.16-.13-.5-.17-1.05-.17-1.56 0-5.8 6.73-12.53 11.14-13.12.29-.04.63-.04.92-.04 3.24 0 5.76 2.31 5.76 4.96 0 .38-.04.71-.13 1.09-.71 2.61-7.23 9.08-9.5 10.8 1.18 1.56 2.65 3.07 4.12 4.16m-11.31 20.98c3.53 0 10.43-7.52 10.43-12.82 0-1.3-.38-2.44-1.3-3.32-7.9 6.39-10.55 11.98-10.55 14.59 0 .71.21 1.22.59 1.39.25.13.55.17.84.17Zm13.28-37.58c-2.1 0-7.61 5.04-7.61 9.04 0 .55.08 1.09.34 1.6 5.46-4.71 7.95-8.66 7.95-10 0-.21-.04-.34-.13-.42a.8.8 0 0 0-.55-.21Z" class="b"/><path d="m187.14 52.23 1.43-2.86c2.4-4.54 4.58-8.2 6.56-10.93.63-.67 1.35-1.01 2.23-1.01 1.22 0 2.44.42 3.66 1.3 1.18.88 1.81 1.85 1.85 2.86-.04.34-.17.63-.42.92-1.64 2.06-3.57 5.04-5.76 9l-.92 1.68c1.3-.21 2.65-.38 4.08-.55 3.4-.38 6.52-.46 9.25-.25.76.13 1.22.46 1.39 1.05.08.21.13.55.17 1.01.08.46-.08 1.13-.55 1.98-.21.46-.55.8-.97 1.01-.13.04-.25.04-.38.08-.17.04-.38.08-.59.04-1.56-.34-4.46-.42-8.66-.25-1.93.08-3.99.34-6.18.67-2.61 5.3-4.96 10.76-7.15 16.48-2.69 7.1-4.2 12.78-4.58 17.07-.13 2.06.25 3.41 1.05 4.12.17.13.34.17.55.17.88 0 2.06-.97 3.49-2.9 1.43-1.89 2.86-4.12 4.29-6.64s2.65-4.79 3.7-6.77c1.01-1.98 1.56-3.11 1.68-3.41.29-.42.63-.63 1.09-.63.29 0 .55.08.76.21.21.17.34.42.29.76 0 .13-.04.29-.13.5-.17.38-.38.84-.59 1.34-1.01 2.19-2.27 4.79-3.74 7.78a76 76 0 0 1-4.71 8.24c-1.68 2.48-3.28 4.12-4.83 4.83-.84.34-1.68.5-2.56.5-1.39 0-2.73-.38-3.95-1.18-1.26-.76-2.19-1.81-2.77-3.2-.55-1.34-.8-3.15-.67-5.42.34-4.88 1.72-10.76 4.16-17.7 1.43-3.99 2.94-7.9 4.62-11.73-.5.17-.97.34-1.35.5-.21.04-.38.13-.5.21-.17.08-.29.13-.42.17-.88.21-1.6-.04-2.06-.76-.13-.25-.25-.5-.29-.71-.21-.67.08-1.22.88-1.68.71-.38 1.51-.76 2.31-1.09 1.13-.46 2.31-.92 3.57-1.35.55-1.18 1.09-2.35 1.68-3.49Zm32.28 34.72c0-14.97 11.48-38.59 16.1-47.92.5-1.05 1.56-1.51 2.77-1.51 3.07 0 7.31 2.69 7.31 5.04 0 .34-.08.63-.25.92-8.95 13.33-18.71 35.65-18.71 47.63 0 2.48.42 4.5 1.35 5.93 3.11-.71 6.26-.97 9.08-.97 3.66 0 6.73.46 8.53 1.05.55.17.76.76.76 1.39 0 1.05-.59 2.31-1.43 2.31h-.17c-1.13-.25-2.44-.34-3.87-.34-6.64 0-15.85 2.48-22.24 6.64-.21.13-.46.21-.71.21-1.72 0-3.83-3.15-3.83-4.96 0-.25.04-.5.17-.71.55-.97 7.9-3.4 9.29-3.74-2.98-2.27-4.16-6.18-4.16-10.97Z" class="b"/><path d="M236.86 87.5c0-5.68 3.45-15.93 6.1-22.74.38-.88 1.26-1.26 2.35-1.26 2.44 0 5.72 1.77 5.72 3.24 0 .17-.04.29-.08.42-3.83 8.87-6.35 17.4-6.35 21.31 0 1.22.25 1.98.76 2.19.08.04.21.04.34.04 2.65 0 10.13-9.88 12.74-15.51.25-.55.67-.8 1.09-.8.55 0 1.05.42 1.05 1.09 0 .21-.04.42-.17.67-4.71 9.08-9.29 15.26-12.53 17.32-.84.5-1.93.76-3.11.76-2.86 0-6.22-1.43-7.4-3.83-.38-.71-.5-1.72-.5-2.9Zm13.58-37.83c2.31 0 5.72 1.64 5.72 3.45 0 .25-.08.46-.17.67-1.47 3.2-4.75 7.02-6.89 7.02-.17 0-.34-.04-.5-.08-.92-.29-1.3-1.85-1.3-3.78 0-2.06.46-4.58 1.09-6.26.25-.71 1.05-1.01 2.06-1.01Z" class="b"/><path d="M280.16 81.11c-2.06 1.05-4.25 1.6-6.6 1.6-1.81 0-3.7-.42-5.63-1.22 1.3 2.44 2.23 4.75 2.77 6.94.55 2.19.84 4.2.84 6.05 0 2.35-.34 4.37-1.05 6.1s-1.64 3.07-2.77 3.99c-1.14.97-2.31 1.43-3.53 1.47h-.21c-1.22 0-2.4-.25-3.62-.8-1.22-.5-2.27-1.39-3.15-2.61-.92-1.22-1.56-2.82-1.93-4.88-.25-1.47-.38-3.07-.38-4.83 0-5.51 1.09-11.86 3.28-19.04 2.19-7.19 5-13.75 8.45-19.76 3.41-6.01 7.06-10.21 10.97-12.7.97-.5 1.98-.76 3.03-.76 1.43 0 2.86.38 4.29 1.09 1.39.71 2.56 1.68 3.53 2.9.92 1.22 1.39 2.56 1.39 4.04 0 .46-.04.97-.17 1.43-.5 1.77-1.09 3.49-1.85 5.17 1.09.17 2.31.34 3.66.42 4.16-8.62 7.31-14.46 9.46-17.49.92-1.14 2.19-1.43 3.74-.88 1.56.55 2.82 1.47 3.83 2.73 1.01 1.3 1.18 2.44.46 3.45-1.98 2.73-4.54 7.15-7.69 13.24 3.49.21 6.85.21 10.13 0s6.1-.8 8.41-1.68 3.87-2.19 4.58-3.99c.29-.71.84-1.05 1.56-.92.71.13 1.3.46 1.81 1.05.46.59.59 1.22.29 1.89-1.3 2.4-3.49 4.12-6.47 5.21s-6.43 1.72-10.26 1.93c-3.87.21-7.78.08-11.69-.29-1.98 3.99-3.87 8.11-5.63 12.36-1.77 4.25-3.19 8.24-4.29 11.9-1.09 3.66-1.64 6.68-1.6 9s.84 3.62 2.48 3.83c.88.04 1.81-.5 2.73-1.72.88-1.22 1.85-2.73 2.86-4.58 1.47-2.61 3.19-5.17 5.21-7.65 1.98-2.48 4.41-4.04 7.31-4.75 2.86-.71 6.31.29 10.34 2.99 1.64-5.04 4.12-8.87 7.48-11.43s7.19-4.12 11.48-4.75c4.25-.63 8.58-.55 12.99.25 4.37.8 8.41 2.06 12.06 3.7.88.42 1.89.92 3.03 1.47 2.73 1.39 5.84 2.73 9.33 4.12 3.45 1.39 6.81 2.1 10.05 2.23s5.89-1.01 7.9-3.36c1.01-1.3 1.47-2.65 1.39-4.04-.13-1.35-.76-2.31-1.89-2.94-.55-.38-.71-1.01-.42-1.81.25-.8.71-1.47 1.39-2.02.63-.55 1.26-.67 1.81-.29 1.64 1.47 2.44 3.4 2.4 5.88s-.92 4.88-2.65 7.15c-2.06 2.48-4.58 4.04-7.57 4.67-2.98.63-6.18.63-9.5.04s-6.52-1.47-9.5-2.65c-3.03-1.13-5.59-2.27-7.69-3.36a50.4 50.4 0 0 0-11.81-4.25c-4.16-.88-8.16-1.09-12.02-.63-3.87.5-7.23 1.89-10.05 4.12s-4.79 5.59-5.93 10c2.1 2.65 3.32 5.09 3.7 7.31.34 2.23.13 4.04-.63 5.34s-1.72 1.89-2.86 1.77c-1.18-.13-2.23-1.3-3.15-3.45-.38-1.01-.59-2.27-.63-3.74s.04-2.94.29-4.41c-3.19-2.82-5.93-4.08-8.24-3.87s-4.29 1.34-6.01 3.36-3.36 4.33-4.92 6.89c-1.56 2.61-3.15 4.88-4.83 6.81-1.68 1.98-3.62 2.94-5.8 2.98-3.57-.17-5.93-1.64-7.02-4.37-1.14-2.73-1.35-6.26-.71-10.59.34-2.4.88-4.83 1.56-7.44-.59.42-1.22.76-1.89 1.09ZM268.6 94.18c0-4.33-1.47-8.83-4.41-13.58-.46 2.06-.88 4.37-1.26 7.02s-.59 5.13-.59 7.44c0 .71.04 1.35.08 1.98.13 1.81.46 3.07.92 3.87s1.01 1.22 1.64 1.22c.71 0 1.39-.46 2.06-1.39.63-.92 1.09-2.19 1.35-3.74.13-.92.21-1.85.21-2.82m11.9-28.29c-4.54 4.71-9.42 7.82-14.67 9.33 1.26 1.68 2.65 2.9 4.2 3.62 1.56.71 3.07 1.09 4.62 1.09 1.85 0 3.57-.38 5.21-1.18 1.22-.55 2.27-1.26 3.15-2.1.34-1.05.71-2.14 1.09-3.28 1.77-5 3.74-9.92 5.97-14.71-1.14-.13-2.4-.34-3.7-.59a39.8 39.8 0 0 1-5.89 7.82Zm-3.4-.88c2.98-3.07 5.34-6.18 7.02-9.37 1.68-3.2 2.52-5.63 2.52-7.27 0-1.13-.42-1.77-1.26-1.81-.63 0-1.51.38-2.65 1.18-2.19 1.72-4.92 5.09-8.16 10-3.24 4.92-5.93 9.71-8.07 14.29 4.04-1.6 7.57-3.95 10.59-7.02Zm43.93 28.59c.38.97.76 1.35 1.13 1.18s.46-.76.29-1.81c-.21-1.05-.88-2.4-2.06-4.12 0 2.23.21 3.83.63 4.75Zm-79.09-79.99h2.59c-.49-1.1-.96-2.22-1.28-3.15-.31.74-.87 2.15-1.31 3.15m-98.7-5.27c-1.91 0-3.27 1.55-3.27 3.43s1.35 3.43 3.27 3.43 3.27-1.53 3.27-3.43-1.35-3.43-3.27-3.43m57.27.03h-1.56v3.16h1.62c1 0 1.69-.5 1.69-1.57s-.72-1.59-1.75-1.59" class="b"/><path d="M256.83 0H126.29c-6.5 0-11.77 5.27-11.77 11.77s5.27 11.77 11.77 11.77h130.54c6.5 0 11.77-5.27 11.77-11.77S263.33 0 256.83 0M134.02 17.23h-.07l-5.81-5.58-.69-.6v6.02h-2.22V6.31h.09l5.8 5.58.68.6V6.47h2.24v10.75Zm9.22.04c-3.21 0-5.55-2.41-5.55-5.5s2.34-5.5 5.55-5.5 5.55 2.44 5.55 5.5-2.34 5.5-5.55 5.5m18.04-.04h-.07l-5.81-5.58-.69-.6v6.02h-2.22V6.31h.09l5.8 5.58.68.6V6.47h2.24v10.75Zm8.53-3.46h-4.74v-1.72h4.74zm6.46 3.5c-1.21 0-2.38-.26-3.15-.6v-2.18c.74.38 1.71.71 2.66.76.34.01.66 0 .94-.06.81-.12 1.28-.43 1.28-.94 0-.71-.63-1.07-2.09-1.6-1.85-.68-2.94-1.46-2.94-3.3s1.56-3.09 3.84-3.09c1.06 0 2.1.24 2.77.53v2.09c-.62-.37-1.62-.65-2.59-.65-1.09 0-1.79.43-1.79 1.1 0 .62.57 1.05 2.02 1.59 1.85.72 3 1.5 3 3.28 0 1.91-1.44 3.06-3.94 3.06Zm16.26-4.06c0 2.47-1.63 4.06-4.43 4.06s-4.43-1.59-4.43-4.06V6.47h2.27v6.52c0 1.38.78 2.21 2.16 2.21s2.16-.82 2.16-2.21V6.47h2.27zm9.83 3.85-1.87-3.71h-1.53v3.71h-2.22V6.47h3.72c2.46 0 4.09 1.22 4.09 3.49 0 1.54-.87 2.56-2.02 3.02l2.22 4.09h-2.4Zm14.67-.6c-.94.49-2.31.81-3.6.81-3.35 0-5.69-2.4-5.69-5.5s2.37-5.5 5.65-5.5c1.57 0 2.72.44 3.33.72v2.09c-.69-.32-1.75-.74-3.18-.74-2.19 0-3.52 1.55-3.52 3.43s1.32 3.44 3.41 3.44c.52 0 1.07-.09 1.44-.21v-2.82h2.16zm6.15.6h-2.27V6.47h2.27zm12.46-.5c-.54.29-1.75.71-3.24.71-3.19 0-5.53-2.4-5.53-5.5s2.34-5.5 5.61-5.5c1.49 0 2.55.44 3.09.74v2.07c-.63-.32-1.63-.74-2.93-.74-2.15 0-3.5 1.55-3.5 3.43s1.34 3.43 3.43 3.43c1.37 0 2.41-.4 3.07-.74zm10.43.5-.85-1.87h-3.96l-.82 1.87h-2.37L243.2 6.3h.09l5.15 10.76zm11.84 0h-6.34V6.47h2.27v8.7h4.08v1.9Z" class="b"/></svg>