<svg xmlns="http://www.w3.org/2000/svg" viewBox="0 0 517.5 330.2"><g fill="#333"><path d="M301.3 65c-5.9 0-11.1 1.6-15.5 4.4-5-17.3-20.1-27.1-43-27.1h-36.2v12.6h37.2c19 0 30.2 10.3 30.2 28.3s-11.2 28.3-30.2 28.3h-.3l2.1-3.1c4.6-6.9 8.8-13.7 8.8-20.1 0-13.2-8.4-23.2-24.8-23.2-14.2 0-24.9 10.9-24.9 23.7h13.5c0-6.4 4.2-11.1 11.4-11.1 7.7 0 11.3 4.5 11.3 11 0 5-3.2 10-6.7 15.1l-5.4 7.8h-22.2v12.6h13.6l-23.7 34.7h56.8v-12.7h-33.5l15.1-22.1h7.9c1.3 0 2.6 0 3.9-.1l39.7 51.8h17.1l-13.1-17 24.9-36.4c6.4-9 13.9-18.8 13.9-30.1-.1-14.9-11.5-27.3-27.9-27.3M282 148l-20.5-26.5c7.5-2.4 13.6-6.4 18-11.9 4.9 6.2 12.6 10.1 21.9 10.1h.7zm19.3-40.8c-8.6 0-14.2-6.5-14.2-14.8 0-.7 0-1.3.1-2V90c1-7.1 6.3-12.4 14-12.4 8.6 0 14.2 6.5 14.2 14.8.1 8.3-5.5 14.8-14.1 14.8"/><path d="M258.7 0c-58.6 0-106.3 47.7-106.3 106.3s47.7 106.3 106.3 106.3S365 164.9 365 106.2C365 47.6 317.3 0 258.7 0m0 200c-51.7 0-93.7-42-93.7-93.7s42-93.7 93.7-93.7 93.7 42 93.7 93.7c0 51.6-42 93.7-93.7 93.7M35.3 298.9c3.3-3.1 5.4-7.5 5.4-12.4s-2.1-9.3-5.4-12.4c-3-2.8-7-4.5-13.2-4.5H0v60.6h11.7v-26.8h4.2l21.6 26.8h14.4l-22.7-27.8c2.5-.8 4.5-2 6.1-3.5m-8-7.7c-1 1.1-2.5 1.8-5.9 1.8h-9.7v-13h9.7c3.4 0 4.9.8 5.9 1.9s1.7 2.9 1.7 4.7c0 1.7-.7 3.4-1.7 4.6m44.3 11.7h18.6v-10.4H71.6V280h24.6v-10.4H59.9v60.6h37.2v-10.4H71.6zm40.8 27.3h11.7v-27.3h18.6v-10.4h-18.6V280h24.6v-10.4h-36.3zm48.6-60.6h11.7v60.6H161zm70.4 39.5-33.8-39.5h-8.2v60.6h11.7v-39.5l33.8 39.5h8.2v-60.6h-11.7zm41.2-6.2h18.6v-10.4h-18.6V280h24.6v-10.4h-36.3v60.6h37.2v-10.4h-25.5zm76.1-4c3.3-3.1 5.4-7.5 5.4-12.4s-2.1-9.3-5.4-12.4c-3-2.8-7-4.5-13.2-4.5h-22.1v60.6h11.7v-26.8h4.2l21.5 26.8h14.5l-22.7-27.8c2.5-.8 4.4-2 6.1-3.5m-8.1-7.7c-1 1.1-2.5 1.8-5.9 1.8H325v-13h9.7c3.4 0 4.9.8 5.9 1.9s1.7 2.9 1.7 4.7c.1 1.7-.6 3.4-1.7 4.6m49-.3-13.4-21.3h-13.3l20.8 33.2v27.4h11.7v-27.4l20.7-33.2h-13.3zm66.6 13.4c4.2-5.5 6.6-10.2 6.6-17.7 0-11.1-9.4-19.1-19.8-19.1h-.4c-10.4 0-19.1 7.7-19.8 18.9h11.7c0-4.3 3.8-8.3 8.3-8.3 4.6 0 8.3 4 8.3 8.3 0 3.2-.4 6.5-4.8 12.1l-26 31.7H465v-10.6h-21.5zm39.1-36.8c-11.8 0-21.5 9.7-21.5 21.7 0 12.4 9.7 21.3 21.2 21.3h.8l-11.5 19.7h12.9l14.3-24.5c3.2-5.5 6-10.9 6-17 0-13-10.9-21.2-22.2-21.2m.3 32.5c-6 0-10.9-4.9-10.9-10.9s4.9-10.9 10.9-10.9 10.9 4.9 10.9 10.9-4.9 10.9-10.9 10.9M355.1 2.6c5.4 0 9.7 4.4 9.7 9.7s-4.4 9.7-9.7 9.7a9.7 9.7 0 0 1 0-19.4m0 18.1c4.6 0 8.4-3.8 8.4-8.4s-3.8-8.4-8.4-8.4-8.4 3.8-8.4 8.4 3.8 8.4 8.4 8.4m2.8-3.2-3.6-5.2h-1.4v5.2h-1.3V6.9h3.7c1.3 0 2 .3 2.5.8s.8 1.2.8 1.9c0 .8-.3 1.4-.8 1.9-.4.4-1 .7-1.9.8l3.5 5.2zm-2.7-6.4c1 0 1.4-.2 1.7-.5.2-.3.4-.6.4-1s-.1-.7-.4-1-.7-.5-1.7-.5h-2.3v3z"/></g></svg>