<svg xmlns="http://www.w3.org/2000/svg" xml:space="preserve" viewBox="0 0 305 107"><path d="M256.28 48.98c0-8.75-5.36-12.98-13.69-14.53v-.56c4.66-1.69 8.89-6.07 8.89-12.27 0-8.89-7.9-14.39-19.75-14.39h-25.96c-2.26 0-3.53 1.27-3.53 3.53v50.23c0 2.26 1.27 3.53 3.53 3.53h28.78c13.12-.02 21.73-6.23 21.73-15.54M217.76 18.5h12.13c3.81 0 6.35 2.54 6.35 5.78 0 3.39-2.54 6.07-6.35 6.07h-12.13zm16.37 34.71h-16.37V41.08h16.37c4.37 0 6.63 2.54 6.63 5.93 0 3.52-2.26 6.2-6.63 6.2m65.18 26.81c0-14.39-10.44-23.56-24.69-23.56-14.96 0-25.96 10.02-25.96 23.42 0 12.7 10.58 22.29 25.96 22.29 11.43 0 18.77-4.51 22.29-11.29.99-2.12-.28-2.96-1.55-2.96h-9.59c-2.12 0-2.54.56-2.82.71-2.68 2.26-4.94 2.96-8.18 2.96-5.64 0-10.44-2.54-10.86-8.61h32.87c1.4 0 2.53-1.27 2.53-2.96m-35.13-4.52c.85-4.94 4.8-8.47 10.44-8.47 5.36 0 9.31 3.39 9.59 8.47zM17.7 31.2c7.76 0 12.56-5.5 12.56-12.56 0-6.91-4.8-12.42-12.56-12.42S5.14 11.73 5.14 18.64c0 7.06 4.8 12.56 12.56 12.56m174.95 10.86c-1.27-.42-4.94-1.41-6.77-1.98-2.96-.99-4.09-1.27-4.66-1.27-1.27 0-1.98.71-2.4 2.12-4.23 13.97-10.58 29.77-16.37 39.65-1.83-3.67-5.36-9.88-8.47-15.52-5.08-8.61-10.02-17.35-12.42-21.45-2.54-4.09-4.23-5.08-7.48-5.08-6.77 0-16.79 6.07-16.79 11.71 0 1.98.56 3.39 2.54 6.77 2.26 3.81 3.39 7.05 3.39 10.86 0 9.59-7.2 18.34-21.02 18.34-6.63 0-11.71-1.83-14.96-5.22-3.25-3.25-4.8-7.62-4.8-14.96V53.77c2.4.99 5.22 1.55 8.61 1.55h11.01c1.55 0 1.98-.56 1.98-1.98v-11.7c0-1.41-.42-1.98-1.98-1.98h-19.6V20.48c0-2.4-.56-3.95-1.83-5.08-1.98-1.83-5.78-2.68-10.44-2.68-4.8 0-8.61.85-10.58 2.68-1.27 1.13-1.83 2.68-1.83 5.08v46.98c0 7.76-1.27 11.99-4.09 14.96-2.4 2.68-6.21 4.09-10.44 4.09-4.09 0-7.62-1.41-9.88-3.67-2.26-2.4-3.25-5.64-3.25-10.58V41.64c0-1.41-.56-1.98-1.98-1.98H7.26c-1.41 0-1.98.56-1.98 1.98v27.65c0 11.01 2.96 17.35 7.9 22.29 6.49 6.49 17.5 9.45 27.94 9.45 10.58 0 21.45-3.81 27.94-9.74 6.35 5.78 17.92 9.74 30.62 9.74 16.79 0 29.07-7.05 36.26-18.77l7.9 11.99c3.39 4.94 6.35 6.77 13.26 6.77 6.35 0 10.3-1.55 13.69-6.91 9.17-13.97 17.07-30.62 22.72-45.85.56-1.83 1.13-3.25 1.13-4.09-.01-.98-.58-1.54-1.99-2.11" style="fill:#eb917d"/></svg>