<svg xmlns="http://www.w3.org/2000/svg" xml:space="preserve" viewBox="0 0 267 267"><linearGradient id="a" x1="-.041" x2="266.041" y1="133.679" y2="133.679" gradientUnits="userSpaceOnUse"><stop offset="0" style="stop-color:#29a9e1"/><stop offset="1" style="stop-color:#0872b9"/></linearGradient><circle cx="133" cy="133.7" r="133" style="fill:url(#a)"/><path d="M173.8 127.9c7.2-4.9 11.9-13.1 11.9-22.5 0-15-12.2-27.2-27.2-27.2s-27.2 12.2-27.2 27.2c0 9.4 4.7 17.6 12 22.5-9.2 3-17.2 8.6-23.2 15.9-2.9-1.9-6.1-3.5-9.5-4.6 5.9-4 9.7-10.7 9.7-18.3 0-12.2-9.9-22.1-22.1-22.1s-22.1 9.9-22.1 22.1c0 7.6 3.8 14.3 9.7 18.3-16.3 5.3-28.1 20.5-28.1 38.6v11.3h150.6v-13.9c0-22.1-14.5-40.8-34.5-47.3" style="fill:#fff"/></svg>