<svg xmlns="http://www.w3.org/2000/svg" id="a" viewBox="0 0 383.15 101.09"><defs><style>.b{fill:#fff}.c{opacity:.6}</style></defs><g class="c"><path d="M375.87 14.57c-4.02 0-7.28-3.27-7.28-7.28s3.27-7.28 7.28-7.28 7.28 3.27 7.28 7.28-3.27 7.28-7.28 7.28m0-13.64c-3.51 0-6.36 2.85-6.36 6.36s2.85 6.36 6.36 6.36 6.36-2.85 6.36-6.36-2.85-6.36-6.36-6.36" class="b"/></g><g class="c"><path d="M374.77 5.19h.9l-1.41 4.15h-.82l-1.4-4.15h.93l.9 3.15.91-3.15Zm1.86.44c.33-.34.76-.51 1.28-.51.69 0 1.2.23 1.51.69.18.26.27.51.28.77h-.87q-.09-.3-.21-.45-.225-.27-.69-.27c-.465 0-.55.13-.73.38q-.27.375-.27 1.08c0 .705.09.81.28 1.05.19.23.43.35.72.35s.52-.1.68-.3q.135-.165.21-.48h.86c-.07.45-.26.82-.57 1.1s-.7.42-1.17.42c-.59 0-1.05-.19-1.39-.57s-.51-.91-.51-1.58c0-.72.19-1.28.58-1.67Z" class="b"/></g><path d="M123.9 82.86v5.18h7.23v3.83h-7.23v8.8h-4.64v-21.7h13.23v3.89zm25.43-4.22h.18l10.55 22.03h-4.85l-1.75-3.83h-8.11l-1.69 3.83h-4.85zm2.74 14.95c-.99-2.26-1.96-4.55-2.62-6.45-.63 1.51-1.78 4.4-2.68 6.45zm32.94-9.29c-1.3-.66-3.35-1.51-6-1.51-4.4 0-7.17 3.16-7.17 7.02s2.74 7.02 7.02 7.02c2.8 0 4.94-.81 6.3-1.51v4.31c-1.12.6-3.59 1.45-6.63 1.45-6.54 0-11.33-4.91-11.33-11.27s4.79-11.27 11.48-11.27c3.04 0 5.21.9 6.33 1.51zm10.64 16.37v-21.7h4.64v21.7zm24.59-22.03h.18l10.55 22.03h-4.85l-1.75-3.83h-8.11l-1.69 3.83h-4.85zm2.74 14.95c-.99-2.26-1.96-4.55-2.62-6.45-.63 1.51-1.78 4.4-2.68 6.45zm17.41 7.08v-21.7h4.64v17.81h8.35v3.89zM10.43 38.61v11.66c0 2.49-.43 4.35-1.29 5.56-.86 1.22-2.17 1.82-3.93 1.82s-3.07-.61-3.93-1.82-1.29-3.07-1.29-5.56V18.16q0-3.735 1.29-5.58c.86-1.23 2.17-1.84 3.93-1.84s3.07.61 3.93 1.84 1.29 3.09 1.29 5.58v10.81H29.6V18.16q0-3.735 1.29-5.58c.86-1.23 2.17-1.84 3.93-1.84s3.07.61 3.93 1.84q1.29 1.845 1.29 5.58v32.11c0 2.49-.43 4.35-1.29 5.56-.86 1.22-2.17 1.82-3.93 1.82s-3.07-.61-3.93-1.82-1.29-3.07-1.29-5.56V38.61zm55.73-12.16c.52-1.4 1.14-2.43 1.85-3.08s1.6-.97 2.67-.97c1.51 0 2.71.43 3.61 1.3s1.35 2.05 1.35 3.53c0 .48-.07 1.02-.22 1.6q-.225.885-.63 1.92L59.33 67.46c-.65 1.55-1.31 2.62-1.98 3.22s-1.49.9-2.45.9c-1.55 0-2.78-.44-3.68-1.32s-1.35-2.07-1.35-3.58c0-.57.07-1.14.22-1.73s.36-1.17.63-1.76l4.18-9.05-10.25-23.88c-.17-.38-.29-.79-.38-1.24s-.13-.98-.13-1.59c0-1.42.47-2.62 1.41-3.58s2.11-1.44 3.49-1.44c1.21 0 2.2.35 2.97 1.04.76.69 1.49 1.98 2.18 3.87l5.72 15.31 6.22-16.15Zm34.25 27.82a10.6 10.6 0 0 1-3.66 2.58c-1.39.59-2.92.88-4.57.88-4.25 0-7.93-1.75-11.02-5.26s-4.64-7.78-4.64-12.81 1.52-9.27 4.57-12.71c3.05-3.45 6.74-5.17 11.08-5.17 1.57 0 3.01.24 4.31.71s2.52 1.2 3.68 2.18v-9.28c0-2.51.41-4.38 1.24-5.59s2.11-1.82 3.85-1.82 2.93.61 3.75 1.84c.83 1.23 1.24 3.09 1.24 5.58v34.75q0 3.765-1.23 5.58c-.82 1.2-2.07 1.81-3.77 1.81-1.01 0-1.92-.28-2.73-.83-.82-.56-1.52-1.37-2.11-2.44ZM86.96 39.78c0 2.51.63 4.56 1.89 6.13s2.86 2.36 4.81 2.36 3.54-.78 4.78-2.34 1.85-3.61 1.85-6.15-.61-4.66-1.84-6.24-2.82-2.37-4.79-2.37-3.58.8-4.82 2.39c-1.25 1.59-1.87 3.67-1.87 6.22Zm30.33 10.37v-20.4c0-2.49.41-4.34 1.24-5.55.83-1.2 2.1-1.81 3.82-1.81 1.03 0 1.94.27 2.73.8.8.53 1.5 1.35 2.11 2.44 1.05-1.13 2.16-1.99 3.33-2.56s2.36-.86 3.55-.86c1.4 0 2.61.5 3.63 1.49s1.52 2.17 1.52 3.53c0 2.03-1.86 3.73-5.59 5.09-1.34.48-2.35.88-3.02 1.19-1.28.61-2.13 1.28-2.55 2.03-.42.74-.63 2.09-.63 4.04v10.56c0 2.49-.42 4.35-1.26 5.56-.84 1.22-2.12 1.82-3.83 1.82s-2.99-.61-3.82-1.82c-.83-1.22-1.24-3.07-1.24-5.56Zm77.94-38.81c2.91 0 5.48.26 7.72.79 2.23.52 4.21 1.33 5.92 2.42 3.02 1.93 5.39 4.59 7.12 8 1.73 3.4 2.59 7.14 2.59 11.2 0 7.19-2 12.88-5.99 17.07s-9.44 6.29-16.36 6.29h-9.52c-2.7 0-4.56-.46-5.56-1.38-1.01-.92-1.51-2.65-1.51-5.19V18.66c0-2.79.53-4.7 1.6-5.75s2.93-1.57 5.59-1.57h8.39Zm-5.15 36.11h4.75c4.17 0 7.29-1.14 9.35-3.43 2.06-2.28 3.1-5.73 3.1-10.34 0-4.23-1.05-7.4-3.16-9.49s-5.26-3.14-9.48-3.14h-4.56zm42.27-4.65c.23 1.91 1.02 3.39 2.36 4.46s3.11 1.6 5.31 1.6q2.865 0 6.36-1.65 3.51-1.65 4.32-1.65c1.19 0 2.17.37 2.92 1.1s1.13 1.68 1.13 2.83c0 2.18-1.52 4.14-4.56 5.89S243.58 58 239.47 58c-5.01 0-9.19-1.71-12.54-5.12-3.35-3.42-5.03-7.7-5.03-12.85s1.63-9.49 4.89-12.95q4.89-5.19 12.18-5.19c7.29 0 8.62 1.62 11.79 4.87 3.16 3.25 4.75 7.22 4.75 11.91 0 1.53-.35 2.6-1.04 3.21s-2.02.91-3.99.91h-18.13Zm-.13-6.63h13.39c-.13-1.72-.82-3.15-2.07-4.3s-2.75-1.73-4.49-1.73-3.2.55-4.43 1.63c-1.24 1.09-2.03 2.56-2.39 4.4Zm27.75 13.98v-20.4c0-2.49.41-4.34 1.24-5.55.83-1.2 2.1-1.81 3.82-1.81 1.03 0 1.94.27 2.73.8.8.53 1.5 1.35 2.11 2.44 1.05-1.13 2.16-1.99 3.33-2.56s2.36-.86 3.55-.86c1.4 0 2.61.5 3.63 1.49s1.52 2.17 1.52 3.53c0 2.03-1.86 3.73-5.59 5.09-1.34.48-2.35.88-3.02 1.19-1.28.61-2.13 1.28-2.55 2.03-.42.74-.63 2.09-.63 4.04v10.56c0 2.49-.42 4.35-1.26 5.56-.84 1.22-2.12 1.82-3.83 1.82s-2.99-.61-3.82-1.82c-.83-1.22-1.24-3.07-1.24-5.56Zm24.45 0v-20.4c0-2.51.42-4.39 1.26-5.63s2.11-1.85 3.8-1.85c.98 0 1.88.28 2.69.83.81.56 1.52 1.4 2.15 2.53 1.05-1.15 2.23-2 3.55-2.55s2.84-.82 4.56-.82c2.18 0 4.11.4 5.78 1.19 1.68.8 3.12 1.99 4.34 3.58q2.295-2.55 4.68-3.66c1.59-.74 3.44-1.12 5.53-1.12 3.62 0 6.44 1.16 8.45 3.49s3.02 5.61 3.02 9.84v14.55c0 2.49-.42 4.35-1.26 5.56-.84 1.22-2.12 1.82-3.83 1.82s-2.99-.6-3.8-1.81q-1.23-1.815-1.23-5.58V38.65c0-2.66-.37-4.61-1.12-5.85-.74-1.23-1.91-1.85-3.5-1.85-1.76 0-3.05.61-3.87 1.82-.82 1.22-1.23 3.13-1.23 5.75v11.6c0 2.49-.42 4.35-1.26 5.56-.84 1.22-2.12 1.82-3.83 1.82s-3-.61-3.83-1.82-1.26-3.07-1.26-5.56V38.65c0-2.68-.37-4.64-1.1-5.86-.73-1.23-1.89-1.84-3.46-1.84-1.76 0-3.05.61-3.87 1.82-.82 1.22-1.23 3.13-1.23 5.75v11.6c0 2.49-.42 4.35-1.26 5.56-.84 1.22-2.12 1.82-3.83 1.82s-2.99-.61-3.82-1.82c-.83-1.22-1.24-3.07-1.24-5.56Zm78.38 3.86a10.2 10.2 0 0 1-3.72 2.88c-1.46.66-3.04.99-4.76.99-4.34 0-7.99-1.71-10.95-5.12-2.97-3.42-4.45-7.68-4.45-12.79s1.53-9.3 4.59-12.76 6.79-5.19 11.19-5.19c1.72 0 3.24.29 4.57.88q1.995.885 3.54 2.73c.59-1.07 1.29-1.87 2.11-2.42a4.8 4.8 0 0 1 2.73-.82c1.7 0 2.95.6 3.77 1.79.82 1.2 1.23 3.05 1.23 5.56v20.4c0 2.49-.41 4.35-1.24 5.56-.83 1.22-2.08 1.82-3.75 1.82-1.13 0-2.09-.28-2.86-.85s-1.44-1.46-1.98-2.67Zm-13.39-14.17c0 2.49.61 4.5 1.82 6.02s2.8 2.28 4.75 2.28 3.47-.77 4.68-2.31 1.82-3.54 1.82-5.99-.61-4.34-1.84-5.85-2.78-2.26-4.67-2.26-3.5.75-4.73 2.25-1.84 3.45-1.84 5.86ZM156.83 60.13c-8.48 0-15.52-5.43-17.17-13.14-1-4.68-.07-9 2.59-13.03 3.02-4.58 5.85-9.28 8.77-13.94 1.6-2.55 3.18-5.1 4.78-7.65.52-.82.66-.83 1.2 0 4.81 7.45 9.71 14.85 14.4 22.37 5.63 9.02 1.44 20.72-8.55 24.32-2.03.73-4.11 1.18-6.01 1.07Zm-8.34-10.07c1.58 2.75 6.43 4.38 10.4 3.59 4.49-.89 7.92-4.66 8.49-9.33.4-3.26-1.65-7.77-4.03-8.86 2.38 4.91.9 9.34-1.4 11.81-3.75 4.05-8.27 4.75-13.46 2.79" class="b"/></svg>