<svg xmlns="http://www.w3.org/2000/svg" id="a" viewBox="0 0 448.67 136.31"><defs><style>.b{fill:#fff}.c{opacity:.6}</style></defs><path d="M8.76 24.19c5.68 0 9.27 2.86 9.27 7.98 0 3.7-2.23 6.14-4.95 7.08l5.47 10.04h-4.71l-4.81-9.31H4.61v9.31H.29v-25.1zm-4.15 3.7v8.54H9c2.82 0 4.64-1.5 4.64-4.25s-1.88-4.29-4.85-4.29zm30.96-4.08h.14L47.6 49.3H43l-2.23-4.99H30.52l-2.23 4.99h-4.6l11.89-25.49Zm3.77 17.22c-1.43-3.21-2.61-6.03-3.66-8.89-1.08 2.61-2.37 5.82-3.73 8.89zm15.19 8.26v-25.1h7.63c8.3 0 13.7 5.12 13.7 12.55s-5.33 12.55-13.6 12.55h-7.74Zm4.39-21.41v17.71h3.31c5.61 0 9.2-3.66 9.2-8.86s-3.59-8.86-9.31-8.86h-3.21Zm25.21 21.41v-25.1h4.39v25.1zm25.66-25.55c7.36 0 13 5.68 13 13s-5.54 13-13 13-13-5.68-13-13 5.58-13 13-13m0 21.96c4.99 0 8.58-3.87 8.58-8.96s-3.59-8.96-8.58-8.96-8.61 3.9-8.61 8.96 3.63 8.96 8.61 8.96m25.66-17.81V35h8.93v3.66h-8.93v10.63h-4.39v-25.1h14.99v3.7zm27.16-3.7c5.68 0 9.27 2.86 9.27 7.98 0 3.7-2.23 6.14-4.95 7.08l5.47 10.04h-4.71l-4.81-9.31h-4.43v9.31h-4.32v-25.1h8.47Zm-4.15 3.7v8.54h4.39c2.82 0 4.64-1.5 4.64-4.25s-1.88-4.29-4.85-4.29zm22.17 21.4v-25.1h15.79v3.7h-11.4v6.9h9.66v3.59h-9.66v7.22h11.92v3.7h-16.32Zm35.53-25.55c7.39 0 13.04 5.68 13.04 13 0 6.24-4.04 11.23-9.76 12.59 2.68 2.41 6.52 3.84 9.94 3.84 1.26 0 2.86-.14 3.84-.38v3.87c-.84.24-2.58.42-4.22.42-5.33 0-11.05-2.86-14.4-7.43-6.62-.7-11.44-6.07-11.44-12.9 0-7.22 5.58-13 13-13Zm0 21.96c4.99 0 8.58-3.87 8.58-8.96s-3.59-8.96-8.58-8.96-8.58 3.9-8.58 8.96 3.63 8.96 8.58 8.96m41.45-5.37c0 5.79-3.77 9.41-10.11 9.41s-10.08-3.63-10.08-9.41V24.19h4.36v15.76c0 3.63 2.13 5.75 5.72 5.75s5.72-2.13 5.72-5.75V24.19h4.39zm9.59 8.96v-25.1h15.79v3.7h-11.4v6.9h9.66v3.59h-9.66v7.22h11.92v3.7h-16.32Zm44.8.39-14.68-15.03c-.38-.35-.8-.77-1.22-1.12v15.76h-4.32V23.81h.14l14.64 14.99 1.22 1.18V24.19h4.32v25.49zm29-20.09c-1.57-.8-4.04-1.81-7.18-1.81-5.4 0-9.03 3.9-9.03 8.96s3.63 8.96 8.93 8.96c3.35 0 5.89-.98 7.46-1.78V48c-1.05.59-3.91 1.74-7.64 1.74-7.57 0-13.18-5.58-13.18-13s5.61-13 13.28-13c3.63 0 6.31 1.19 7.36 1.78v4.08Zm9.7-5.4 6.34 11.09 6.38-11.09h4.92l-9.1 15.27v9.83h-4.39v-9.83l-9.06-15.27h4.92ZM2.83 69.54V88.8h19.39v2.45H2.83v22.22H0V67.1h25.82v2.45H2.83Zm53.52-3.22h.13l20.54 47.14h-2.96l-5.54-12.69H44.24l-5.47 12.69h-3.03zm11.14 32.01-11.08-25.5-11.08 25.5h22.15Zm61.24-25.5c-3.86-2-8.76-3.8-14.36-3.8-12.36 0-20.99 9.47-20.99 21.25s8.63 21.25 20.99 21.25c5.73 0 10.82-1.8 14.68-3.74v2.9c-3.35 1.8-8.31 3.54-14.68 3.54-13.72 0-23.96-10.63-23.96-23.96s10.24-23.96 23.96-23.96c6.25 0 11.08 1.8 14.36 3.61v2.9Zm20.54 40.63V67.09h27.11v2.45H152.1V88.8h20.74v2.45H152.1v19.77h25.24v2.45h-28.08Zm48.61 0V67.09h2.83v43.92h21.25v2.45h-24.09Zm43.02 0V67.09h2.83v46.37zm30.39-43.92V88.8h19.38v2.45h-19.38v22.22h-2.83V67.1h25.82v2.45h-22.99Zm54.74 0v43.92h-2.83V69.54h-14.49v-2.45h31.88v2.45h-14.55Zm53.18 66.74c-.81.16-1.09-.29-1.39-.71-9.29-13.17-15.54-27.53-15.31-43.89.3-20.9 9.33-37.95 24.79-51.67 7.06-6.26 14.41-12.19 20.3-19.64 2.13-2.69 4-5.54 5.6-8.58.28-.54.5-1.32 1.25-1.1.38.11.75.74.86 1.19 1.78 7.29 4.55 14.49 1.32 22.14-1.36 3.21-.4 4.52 3.35 5.09-2.99 2.88-.51 4.68 1.18 6.58 1.45 1.62 3.08 3.08 4.53 4.71 2.1 2.36 1.98 3.62-.41 5.75-.54.48-1.15.89-1.72 1.34-2.64 2.1-2.8 2.98-.57 5.57 1.68 1.95 2.67 3.76.34 5.87-.23.2-.59.58-.53.72 1.52 3.42-1.42 5.2-2.71 7.59-.65 1.21-.74 2.54-.56 3.93.69 5.3-1.96 8.4-7.41 8.79-3.39.25-6.55-.91-9.79-1.56-2.94-.59-5.85-1.39-8.79-1.96-5.53-1.07-8.83.42-11.62 5.41-2.78 4.98-3.8 10.48-4.29 16.1-.8 9.14-.35 18.21 1.58 27.19.08.37.01.77.01 1.13Z" class="b"/><g class="c"><path d="M437.57 22.19c-6.12 0-11.1-4.98-11.1-11.1s4.98-11.1 11.1-11.1 11.1 4.98 11.1 11.1-4.98 11.1-11.1 11.1m0-20.79c-5.34 0-9.69 4.35-9.69 9.69s4.35 9.69 9.69 9.69 9.69-4.35 9.69-9.69-4.35-9.69-9.69-9.69" class="b"/></g><g class="c"><path d="M435.89 7.91h1.37l-2.15 6.32h-1.25l-2.14-6.32h1.41l1.37 4.8 1.38-4.8Zm2.84.66c.51-.52 1.16-.78 1.94-.78q1.575 0 2.31 1.05c.27.39.41.78.43 1.18h-1.32c-.08-.3-.19-.53-.32-.69-.24-.27-.58-.41-1.05-.41s-.84.19-1.11.58-.41.94-.41 1.64.14 1.24.43 1.59.65.53 1.09.53.8-.15 1.04-.45c.13-.16.24-.41.33-.73h1.31q-.165 1.035-.87 1.68c-.705.645-1.06.65-1.79.65-.9 0-1.61-.29-2.12-.87-.51-.59-.77-1.39-.77-2.41 0-1.1.29-1.95.88-2.55Z" class="b"/></g></svg>