<svg xmlns="http://www.w3.org/2000/svg" xml:space="preserve" id="Layer_1" x="0" y="0" viewBox="0 0 267 267"><style>.st1{fill:#fff}</style><linearGradient id="SVGID_1_" x1="1404.959" x2="1671.041" y1="233.679" y2="233.679" gradientUnits="userSpaceOnUse"><stop offset="0" style="stop-color:#29a9e1"/><stop offset="1" style="stop-color:#0872b9"/></linearGradient><circle cx="1538" cy="233.7" r="133" style="fill:url(#SVGID_1_)"/><path d="m1610.1 309.6-25.6-34.8c6.1-6.9 5.8-17.5-.8-24.1L1522 189c-3.3-3.3-7.8-5.2-12.5-5.2-4.6 0-9 1.8-12.3 5-.2-.3-.4-.5-.6-.8l-15.9-15.9c-.3-.3-.7-.6-1.1-.8l20.3-20.3c1.3-1.3 1.3-3.5 0-4.8l-1-1c-1.3-1.3-3.5-1.3-4.8 0l-48.4 48.4c-1.3 1.3-1.3 3.5 0 4.8l1 1c1.3 1.3 3.5 1.3 4.8 0l20.5-20.5c.2.4.5.8.8 1.1l15.9 15.9c.2.2.5.5.8.6l-.1.1c-6.9 6.9-6.9 18.1 0 25l61.7 61.7c3.3 3.3 7.8 5.2 12.5 5.2 4.3 0 8.4-1.6 11.6-4.4zM1495.9 203l7.6-7.6c1.6-1.6 3.8-2.5 6.1-2.5s4.5.9 6.1 2.5l21.1 21.1-19.8 19.8-21.1-21.1c-3.4-3.4-3.4-8.8 0-12.2" class="st1"/><linearGradient id="SVGID_2_" x1="1" x2="267.082" y1="133.656" y2="133.656" gradientUnits="userSpaceOnUse"><stop offset="0" style="stop-color:#29a9e1"/><stop offset="1" style="stop-color:#0872b9"/></linearGradient><circle cx="134" cy="133.7" r="133" style="fill:url(#SVGID_2_)"/><path d="M98.9 102.1c3.9 0 7-3.1 7-7V81c0-3.9-3.1-7-7-7s-7 3.1-7 7v14c0 3.9 3.2 7.1 7 7.1m70.2 0c3.9 0 7-3.1 7-7V81c0-3.9-3.1-7-7-7s-7 3.1-7 7v14c0 3.9 3.2 7.1 7 7.1" class="st1"/><path d="M190.2 81h-7v14c0 7.7-6.3 14-14 14s-14-6.3-14-14V81H113v14c0 7.7-6.3 14-14 14s-14-6.3-14-14V81h-7c-3.9 0-7 3.1-7 7v98.3c0 3.9 3.1 7 7 7h112.3c3.9 0 7-3.1 7-7V88c-.1-3.9-3.2-7-7.1-7m0 98.3c0 3.9-3.1 7-7 7H84.9c-3.9 0-7-3.1-7-7v-56.2c0-3.9 3.1-7 7-7h98.3c3.9 0 7 3.1 7 7z" class="st1"/><path d="M84.9 123.1h14v14h-14zm21.1 0h14v14h-14zm21 0h14v14h-14zm21.1 0h14v14h-14zm21 0h14v14h-14zm-84.2 21.1h14v14h-14zm21.1 0h14v14h-14zm21 0h14v14h-14zm42.1 0h14v14h-14zm-84.2 21.1h14v14h-14zm21.1 0h14v14h-14zm21 0h14v14h-14zm21.1 0h14v14h-14zm21 0h14v14h-14z" class="st1"/></svg>